<svg width="281" height="806" viewBox="0 0 281 806" fill="none" xmlns="http://www.w3.org/2000/svg">
<path d="M142.1 47.993C142.1 47.993 131.212 38.569 129.706 18.454C128.539 2.87998 142.1 13.828 142.1 13.828C142.1 13.828 141.369 2.60602 149.4 4.25202C157.431 5.89802 161.186 17.8879 161.186 17.8879" fill="#0C0C0C"></path>
<path d="M191.2 8.36108C191.2 8.36108 231.122 15.367 212.934 68.881H202.1" fill="#0C0C0C"></path>
<path d="M146.236 124.516C146.413 124.493 148.379 157.116 186.281 154.274C212.52 152.309 221.875 124.474 222.481 124.474C219.652 123.874 216.155 122.96 214.766 122.647C211.738 121.944 208.996 120.336 206.904 118.037C204.812 115.737 203.47 112.855 203.056 109.774C202.288 105.15 203.59 81.491 203.189 76.812L162.913 85.802C163.476 95.684 167.413 118.593 153.613 122.647C151.308 123.314 148.834 123.931 146.236 124.516Z" fill="#E98862"></path>
<path opacity="1" d="M162.344 113.281C162.975 111.248 163.381 109.152 163.556 107.03C163.998 102.188 163.91 97.3125 163.292 92.49C171.478 91.3855 179.191 88.0069 185.553 82.738C186.301 85.5 190.414 97.568 189.275 100.194C187.122 105.156 177.007 113.281 162.344 113.281Z" fill="#0C0C0C"></path>
<path d="M169.493 105.4C185.442 105.041 205.093 96.295 206.805 74.793L208.353 55.393C210.069 33.893 200.166 15.558 179.921 13.943C159.675 12.327 143.151 28.551 141.436 50.053L140.75 58.643C140.567 61.5961 140.584 64.5583 140.803 67.5091C141.324 75.3091 142.147 87.179 146.863 95.485C151.316 103.322 159.3 105.628 169.493 105.4Z" fill="#E98862"></path>
<path opacity="1" d="M163.455 85.2338C160.173 85.1633 156.952 84.322 154.055 82.7778C153.94 82.7129 153.854 82.6061 153.816 82.4796C153.778 82.353 153.79 82.2166 153.849 82.0987C153.909 81.9808 154.012 81.8906 154.137 81.8469C154.262 81.8031 154.399 81.8092 154.519 81.8638C160.77 85.0398 166.64 85.0298 171.494 81.8348C171.591 81.7671 171.691 81.7047 171.794 81.6478C171.915 81.5949 172.052 81.5909 172.176 81.6365C172.3 81.6822 172.402 81.7739 172.46 81.8928C172.518 82.0116 172.528 82.1483 172.488 82.2742C172.448 82.4002 172.36 82.5057 172.244 82.5688C172.205 82.5898 172.144 82.6328 172.054 82.6918C169.504 84.3753 166.51 85.2603 163.455 85.2338Z" fill="#0C0C0C"></path>
<path opacity="1" d="M163.283 90.0931C162.689 90.0895 162.097 90.0353 161.513 89.9311C161.447 89.9195 161.383 89.895 161.327 89.8589C161.27 89.8229 161.221 89.7761 161.182 89.7211C161.143 89.6661 161.116 89.6039 161.101 89.5383C161.087 89.4726 161.085 89.4048 161.096 89.3386C161.108 89.2723 161.132 89.2089 161.168 89.1521C161.204 89.0954 161.251 89.0463 161.306 89.0076C161.361 88.9689 161.424 88.9415 161.489 88.9268C161.555 88.9121 161.623 88.9105 161.689 88.922C165.205 89.535 167.004 88.0221 167.079 87.9611C167.182 87.8769 167.314 87.836 167.446 87.847C167.579 87.858 167.702 87.9201 167.789 88.0201C167.877 88.1201 167.922 88.2502 167.916 88.383C167.91 88.5158 167.852 88.641 167.755 88.7321C166.466 89.6889 164.886 90.1698 163.283 90.0931V90.0931Z" fill="#0C0C0C"></path>
<path d="M147.441 60.0822C148.822 60.0822 149.942 58.9624 149.942 57.5812C149.942 56.1999 148.822 55.0801 147.441 55.0801C146.06 55.0801 144.94 56.1999 144.94 57.5812C144.94 58.9624 146.06 60.0822 147.441 60.0822Z" fill="#0C0C0C"></path>
<path d="M170.625 60.239C172.006 60.239 173.126 59.1193 173.126 57.738C173.126 56.3568 172.006 55.2371 170.625 55.2371C169.244 55.2371 168.124 56.3568 168.124 57.738C168.124 59.1193 169.244 60.239 170.625 60.239Z" fill="#0C0C0C"></path>
<path d="M205.025 81.2408C211.177 81.7318 216.69 75.5479 217.181 69.3949C217.672 63.2419 212.955 59.4519 206.803 58.9609L203.303 62.8309L199.735 80.8188L205.025 81.2408Z" fill="#E98862"></path>
<path d="M199.562 70.9361C199.562 70.9361 199.523 40.345 190.415 37.845C184.349 36.181 168.851 43.905 155.215 40.345C149.249 38.787 143.415 39.898 142.637 42.714C142.33 43.829 139.654 27.334 149.943 15.641C158.136 6.33202 182.979 5.21301 193.981 9.18301C224.446 20.175 207.981 60.3831 207.981 60.3831L205.893 70.789L199.562 70.9361Z" fill="#0C0C0C"></path>
<g opacity="1">
<path opacity="1" d="M160.215 77.8H160.175C158.192 77.647 154.883 77.1689 154.996 75.6859C155.096 74.4559 159.479 61.4469 159.98 59.9679C160.026 59.8445 160.118 59.7438 160.237 59.6873C160.356 59.6307 160.493 59.6227 160.618 59.6649C160.742 59.7072 160.846 59.7964 160.906 59.9136C160.966 60.0308 160.978 60.1668 160.94 60.2929C158.992 66.0539 156.071 74.9278 156.006 75.7628C156.174 76.1288 158.199 76.6309 160.252 76.7899C160.384 76.7981 160.507 76.8574 160.596 76.9552C160.684 77.053 160.731 77.1816 160.726 77.3135C160.721 77.4454 160.665 77.5701 160.57 77.6612C160.474 77.7522 160.347 77.8024 160.215 77.8009V77.8Z" fill="#0C0C0C"></path>
</g>
<path d="M154.471 49.9001C152.87 49.2394 151.124 49.0121 149.408 49.241C148.533 49.3508 147.68 49.5926 146.878 49.9581C146.059 50.3272 145.29 50.7975 144.589 51.3581L144.533 51.4001C144.351 51.5287 144.127 51.5834 143.907 51.553C143.686 51.5226 143.485 51.4094 143.345 51.2364C143.205 51.0633 143.137 50.8434 143.153 50.6214C143.169 50.3994 143.269 50.1919 143.433 50.0411C144.21 49.3182 145.075 48.6966 146.009 48.1911C146.955 47.6735 147.974 47.3006 149.032 47.085C150.09 46.8584 151.175 46.7777 152.256 46.845C153.368 46.9036 154.466 47.1205 155.518 47.4891C155.847 47.6051 156.117 47.8472 156.268 48.1623C156.419 48.4773 156.439 48.8395 156.323 49.169C156.207 49.4985 155.964 49.7685 155.649 49.9195C155.334 50.0704 154.972 50.0901 154.643 49.974C154.611 49.962 154.58 49.9501 154.55 49.9371L154.471 49.9001Z" fill="#0C0C0C"></path>
<path d="M169.154 47.6999C171.24 46.9841 173.481 46.846 175.64 47.3C176.697 47.5156 177.716 47.8884 178.663 48.406C179.596 48.9118 180.462 49.5337 181.239 50.2569C181.405 50.4073 181.506 50.6153 181.524 50.8383C181.541 51.0614 181.472 51.2826 181.331 51.4565C181.191 51.6305 180.989 51.7441 180.767 51.7739C180.545 51.8037 180.32 51.7475 180.139 51.6169L180.081 51.5739C179.38 51.0128 178.61 50.5424 177.791 50.1739C176.989 49.8084 176.136 49.5667 175.262 49.457C173.546 49.2271 171.799 49.454 170.199 50.115L170.125 50.1479C169.806 50.2858 169.446 50.2922 169.122 50.1655C168.798 50.0388 168.538 49.7894 168.398 49.4716C168.257 49.1539 168.248 48.7935 168.372 48.469C168.496 48.1444 168.743 47.882 169.06 47.739C169.09 47.72 169.123 47.7069 169.154 47.6999Z" fill="#0C0C0C"></path>
<path d="M171.297 17.2145C173.148 10.5999 171.006 4.21807 166.512 2.96032C162.017 1.70258 156.873 6.04517 155.022 12.6598C153.171 19.2744 155.314 25.6562 159.808 26.914C164.302 28.1717 169.446 23.8291 171.297 17.2145Z" fill="#0C0C0C"></path>
<path d="M210.385 675.682C210.385 675.682 236.409 690.09 231.185 712.582C225.961 735.074 244.985 735.494 244.985 735.494L269.98 651.022L227.78 638.534L210.385 675.682Z" fill="#367CFF"></path>
<path d="M110.468 315.145C110.468 315.145 62.121 506.822 75.421 535.193C88.496 563.085 223.9 687.016 223.9 687.016L248.294 641.683L144.609 516.505C144.609 516.505 174.071 448.696 191.056 396.565C201.295 365.139 212.404 336.952 214.04 303.94L110.468 315.145Z" fill="#262626"></path>
<path d="M181.775 560.419L167.817 544.523L171.45 637.834L187.008 652.621L181.775 560.419Z" fill="#0A0A0A"></path>
<path d="M179.744 429.594C179.744 429.594 182.285 377.506 177.444 387.494C168.705 405.534 166.422 463.694 166.422 463.694L179.744 429.594Z" fill="#0A0A0A"></path>
<path d="M198.006 759.407C198.006 759.407 193.257 784.028 170.206 785.4C147.155 786.772 152.153 805.137 152.153 805.137H240.246V761.124L198.006 759.407Z" fill="#367CFF"></path>
<path d="M267.743 310.283C267.743 310.283 268.134 308.468 268.365 319.076C269.73 381.685 244.131 775.12 244.131 775.12L186.245 774.634L170.745 307.734L267.743 310.283Z" fill="#262626"></path>
<path d="M99.146 196.343C100.339 210.368 109.082 297.87 110.23 315.143H268.419C269.313 299.562 270.39 231.431 273.779 200.962C277.014 171.887 283.36 156.279 278.708 147.683C271.108 133.635 250.334 126.569 236.171 124.652C227.521 123.481 214.513 122.641 214.513 122.641C214.513 122.641 213.413 144.923 187.148 146.163C151.396 147.85 153.783 122.641 153.606 122.641C140.626 122.641 116.059 125.747 106.632 132.158C85.4331 146.575 96.612 166.621 99.146 196.343Z" fill="#367CFF"></path>
<path d="M108.516 141.68L71.6789 179.789L38.133 166.231L2.57783 254.205L2.35786 254.73C-0.0819705 260.806 -0.303552 267.547 1.73164 273.77C3.76683 279.993 7.92878 285.301 13.4873 288.761C19.0457 292.221 25.6455 293.613 32.1279 292.692C38.6103 291.771 44.5611 288.596 48.936 283.725L145.509 176.139L108.516 141.68Z" fill="#367CFF"></path>
<path d="M140.949 130.08C140.662 129.624 140.284 129.232 139.84 128.926C139.397 128.621 138.895 128.41 138.367 128.305C137.838 128.2 137.294 128.204 136.767 128.316C136.24 128.428 135.742 128.647 135.302 128.958C134.472 129.59 133.913 130.514 133.738 131.543C133.563 132.571 133.785 133.628 134.359 134.499L136.191 137.162L116.055 124.48C115.639 124.214 115.175 124.033 114.689 123.948C114.203 123.862 113.705 123.873 113.224 123.981C112.742 124.089 112.287 124.291 111.883 124.575C111.48 124.859 111.137 125.221 110.874 125.638C110.611 126.056 110.434 126.521 110.351 127.008C110.269 127.494 110.284 127.992 110.395 128.473C110.506 128.954 110.711 129.408 110.998 129.809C111.285 130.21 111.649 130.551 112.068 130.811L120.453 136.092C120.431 136.11 120.411 136.13 120.395 136.153C119.434 135.793 118.372 135.818 117.43 136.224C116.488 136.63 115.739 137.385 115.342 138.331C114.997 139.202 114.964 140.166 115.248 141.059C115.532 141.952 116.116 142.719 116.901 143.231L118.018 143.988C118.009 144.033 118.009 144.078 118.018 144.123C117.149 143.789 116.19 143.771 115.31 144.073C114.43 144.375 113.683 144.978 113.203 145.775C112.696 146.687 112.555 147.758 112.807 148.77C113.059 149.782 113.686 150.661 114.562 151.229L117.314 153.094C117.253 153.096 117.194 153.113 117.142 153.143C117.089 153.174 117.045 153.217 117.014 153.269C116.979 153.33 116.963 153.399 116.968 153.469C116.128 153.386 115.283 153.574 114.557 154.006C113.831 154.438 113.263 155.091 112.935 155.869C112.59 156.74 112.556 157.704 112.84 158.597C113.124 159.49 113.708 160.257 114.493 160.769L129.393 170.903C132.687 173.134 136.572 174.331 140.55 174.34C144.529 174.349 148.419 173.169 151.723 170.953L162.36 163.816L140.949 130.08Z" fill="#E98862"></path>
<g opacity="0.2">
<path opacity="0.2" d="M128.818 141.776C128.775 141.768 128.734 141.752 128.696 141.728L120.496 136.693C120.452 136.669 120.413 136.636 120.382 136.596C120.351 136.556 120.329 136.51 120.316 136.462C120.303 136.413 120.3 136.362 120.308 136.312C120.315 136.262 120.332 136.214 120.359 136.171C120.385 136.128 120.42 136.091 120.461 136.062C120.502 136.033 120.549 136.013 120.598 136.002C120.648 135.991 120.699 135.991 120.748 136.001C120.798 136.01 120.845 136.03 120.886 136.058L129.086 141.093C129.16 141.139 129.216 141.21 129.244 141.293C129.271 141.375 129.269 141.465 129.237 141.546C129.205 141.628 129.146 141.695 129.069 141.737C128.993 141.779 128.904 141.793 128.818 141.776V141.776Z" fill="#0C0C0C"></path>
<path opacity="0.2" d="M124.728 148.421C124.684 148.413 124.642 148.396 124.604 148.372L118.187 144.364C118.144 144.339 118.105 144.306 118.075 144.266C118.044 144.226 118.022 144.18 118.009 144.131C117.997 144.082 117.995 144.032 118.003 143.982C118.01 143.932 118.028 143.885 118.055 143.842C118.082 143.799 118.117 143.762 118.158 143.733C118.199 143.705 118.246 143.685 118.295 143.674C118.344 143.664 118.395 143.664 118.445 143.674C118.494 143.684 118.541 143.704 118.582 143.732L124.999 147.74C125.074 147.786 125.13 147.857 125.158 147.94C125.185 148.023 125.182 148.113 125.15 148.195C125.118 148.276 125.058 148.343 124.981 148.385C124.903 148.426 124.814 148.439 124.728 148.421V148.421Z" fill="#0C0C0C"></path>
<path opacity="0.2" d="M120.34 155.644C120.299 155.636 120.259 155.621 120.223 155.599L117.148 153.778C117.068 153.725 117.012 153.644 116.99 153.55C116.968 153.457 116.984 153.359 117.033 153.276C117.081 153.194 117.16 153.133 117.252 153.107C117.345 153.081 117.444 153.092 117.528 153.137L120.603 154.958C120.679 155.003 120.735 155.073 120.764 155.156C120.793 155.239 120.791 155.33 120.76 155.411C120.728 155.493 120.669 155.562 120.592 155.604C120.516 155.647 120.426 155.661 120.34 155.644V155.644Z" fill="#0C0C0C"></path>
</g>
<path d="M75.3787 179.74H106.647C107.454 179.74 108.251 179.561 108.981 179.216C109.71 178.871 110.354 178.368 110.866 177.744C111.379 177.12 111.746 176.39 111.942 175.607C112.138 174.825 112.158 174.008 112.001 173.216L99.6296 111.046C99.3817 109.8 98.7067 108.679 97.7209 107.877C96.7352 107.075 95.5005 106.642 94.2297 106.653L63.7588 106.91C62.9609 106.917 62.1741 107.098 61.4538 107.442C60.7336 107.785 60.0975 108.283 59.5903 108.899C59.0831 109.515 58.717 110.234 58.5181 111.007C58.3191 111.78 58.292 112.587 58.4387 113.371L70.0127 175.284C70.2467 176.536 70.9114 177.667 71.8913 178.481C72.8713 179.295 74.1049 179.74 75.3787 179.74Z" fill="#262626"></path>
<path d="M99.4641 145.117C98.9851 144.399 98.2881 143.853 97.4756 143.56C96.6631 143.268 95.778 143.244 94.9509 143.492C94.9499 143.442 94.9369 143.393 94.9126 143.349C94.8883 143.304 94.8536 143.267 94.8115 143.239C94.7695 143.212 94.7212 143.195 94.6711 143.19C94.6211 143.185 94.5705 143.192 94.5239 143.211L96.9509 140.79C97.7185 140.056 98.1786 139.057 98.2378 137.996C98.297 136.935 97.9511 135.891 97.27 135.075C96.6364 134.369 95.774 133.908 94.8345 133.775C93.895 133.641 92.9386 133.843 92.1331 134.344C92.1331 134.304 92.1011 134.271 92.0891 134.232L93.0891 133.232C93.7772 132.571 94.2151 131.691 94.3289 130.744C94.4426 129.796 94.2249 128.838 93.7129 128.032C93.3822 127.534 92.9449 127.115 92.4326 126.806C91.9203 126.497 91.346 126.305 90.7507 126.245C90.1555 126.185 89.5542 126.258 88.9905 126.458C88.4268 126.659 87.9147 126.982 87.491 127.404L85.1851 129.704C85.1751 129.689 85.179 129.67 85.167 129.657C85.155 129.644 85.1249 129.644 85.1069 129.631C85.5968 128.858 85.8095 127.942 85.7097 127.032C85.61 126.122 85.2039 125.274 84.5581 124.625C83.0001 122.843 80.219 123.714 78.728 125.201L64.6599 138.982L65.0879 138.339L67.0801 133.262C67.4882 132.281 67.5087 131.182 67.1375 130.186C66.7662 129.191 66.0309 128.374 65.0801 127.899C64.5808 127.672 64.0402 127.548 63.4917 127.537C62.9432 127.525 62.398 127.625 61.8894 127.831C61.3808 128.036 60.9196 128.344 60.5337 128.734C60.1478 129.124 59.8454 129.589 59.645 130.099L48 158.91C48 158.91 72.4711 176.617 78.3391 170.764L98.844 150.314C99.5306 149.652 99.9673 148.773 100.08 147.826C100.193 146.879 99.9757 145.922 99.4641 145.117V145.117Z" fill="#E98862"></path>
<g opacity="0.2">
<path opacity="0.2" d="M71.6797 142.7C71.7494 142.768 71.8429 142.806 71.9402 142.806C72.0376 142.806 72.1311 142.768 72.2007 142.7L85.1568 130.189C85.2233 130.119 85.2604 130.027 85.2601 129.93C85.2598 129.834 85.2223 129.742 85.1553 129.672C85.0884 129.603 84.9972 129.562 84.9009 129.559C84.8047 129.555 84.7106 129.589 84.6387 129.653L71.6829 142.164C71.6119 142.233 71.5711 142.327 71.5694 142.426C71.5677 142.525 71.6053 142.62 71.6739 142.691L71.6797 142.7Z" fill="#0C0C0C"></path>
<path opacity="0.2" d="M77.0398 148.565C77.1095 148.633 77.203 148.671 77.3003 148.671C77.3977 148.671 77.4912 148.633 77.5608 148.565L92.0189 134.603C92.0899 134.534 92.1307 134.44 92.1324 134.341C92.1341 134.243 92.0965 134.147 92.0279 134.076C91.9577 134.008 91.8641 133.969 91.7662 133.967C91.6683 133.966 91.5733 134.001 91.5008 134.067L77.0428 148.029C76.9718 148.098 76.9309 148.192 76.9293 148.291C76.9276 148.39 76.9651 148.485 77.0337 148.556L77.0398 148.565Z" fill="#0C0C0C"></path>
<path opacity="0.2" d="M82.8089 154.952C82.8787 155.02 82.9721 155.058 83.0694 155.058C83.1667 155.058 83.2601 155.02 83.3299 154.952L94.8628 143.816C94.9294 143.747 94.9664 143.654 94.9661 143.557C94.9658 143.461 94.9283 143.369 94.8614 143.299C94.7944 143.23 94.7033 143.189 94.607 143.186C94.5107 143.182 94.4167 143.216 94.3448 143.28L82.8118 154.416C82.7408 154.485 82.7 154.579 82.6983 154.678C82.6966 154.777 82.7342 154.872 82.8028 154.943L82.8089 154.952Z" fill="#0C0C0C"></path>
</g>
<path d="M44.0051 151.241L88.8372 168.738L54.7332 267.204L2.24316 253.499L44.0051 151.241Z" fill="#367CFF"></path>
<path d="M195.506 284.652C190.569 284.652 185.72 283.344 181.453 280.861C177.186 278.379 173.652 274.81 171.212 270.518L120.542 176.09L162.742 149.118L194.991 203.724L229.849 143.494L275.114 176.703L220.045 270.079C217.662 274.452 214.155 278.108 209.885 280.67C205.614 283.232 200.737 284.607 195.758 284.651L195.506 284.652Z" fill="#367CFF"></path>
<path d="M195.506 285.025C190.504 285.019 185.593 283.692 181.27 281.176C176.946 278.661 173.365 275.048 170.888 270.702L120.213 176.266C120.169 176.183 120.157 176.087 120.181 175.996C120.205 175.905 120.262 175.827 120.341 175.776L162.541 148.804C162.583 148.777 162.63 148.758 162.68 148.75C162.729 148.742 162.78 148.744 162.829 148.756C162.878 148.768 162.923 148.789 162.964 148.819C163.004 148.849 163.038 148.886 163.063 148.929L194.99 202.989L218.9 162.1C218.951 162.018 219.033 161.958 219.127 161.935C219.221 161.911 219.321 161.926 219.405 161.975C219.489 162.024 219.55 162.103 219.576 162.197C219.602 162.291 219.591 162.391 219.544 162.476L195.312 203.91C195.279 203.966 195.232 204.013 195.176 204.045C195.12 204.077 195.056 204.095 194.991 204.095C194.926 204.095 194.863 204.078 194.806 204.046C194.75 204.014 194.703 203.968 194.67 203.912L162.617 149.638L121.033 176.216L171.54 270.339C173.952 274.568 177.439 278.085 181.648 280.533C185.856 282.98 190.637 284.272 195.506 284.277H195.755C200.667 284.231 205.479 282.874 209.692 280.347C213.904 277.819 217.366 274.212 219.718 269.899L269.035 185.818C269.087 185.737 269.168 185.679 269.262 185.657C269.356 185.635 269.454 185.649 269.537 185.698C269.62 185.747 269.682 185.826 269.708 185.918C269.734 186.011 269.723 186.11 269.678 186.195L220.367 270.266C217.951 274.693 214.396 278.395 210.071 280.99C205.745 283.584 200.805 284.976 195.762 285.023L195.506 285.025Z" fill="#0C0C0C"></path>
<path d="M206.951 225.261C206.885 225.261 206.82 225.244 206.763 225.21C206.706 225.177 206.659 225.129 206.626 225.072L194.666 203.908C194.617 203.822 194.605 203.72 194.631 203.624C194.658 203.529 194.721 203.448 194.808 203.4C194.894 203.351 194.996 203.338 195.091 203.365C195.186 203.392 195.267 203.455 195.316 203.541L207.276 224.705C207.324 224.791 207.337 224.893 207.31 224.988C207.284 225.084 207.22 225.164 207.134 225.213C207.078 225.245 207.015 225.261 206.951 225.261V225.261Z" fill="#0C0C0C"></path>
<path d="M64.2439 242.646C64.2023 242.646 64.1613 242.639 64.122 242.625C64.0288 242.593 63.952 242.524 63.9089 242.436C63.8658 242.347 63.8598 242.244 63.8921 242.151L89.2619 168.901C89.3016 168.818 89.3704 168.753 89.455 168.718C89.5397 168.683 89.6343 168.68 89.7209 168.71C89.8075 168.74 89.8801 168.801 89.9245 168.882C89.969 168.962 89.9822 169.056 89.9619 169.145L64.592 242.395C64.5668 242.468 64.5197 242.53 64.4575 242.575C64.3952 242.62 64.3206 242.645 64.2439 242.646V242.646Z" fill="#0C0C0C"></path>
<path d="M100.98 226.24C100.886 226.239 100.795 226.203 100.727 226.139C100.658 226.075 100.616 225.988 100.609 225.894L99.1378 205.805C99.1341 205.756 99.1402 205.707 99.1556 205.66C99.1709 205.614 99.1953 205.57 99.2274 205.533C99.2594 205.496 99.2985 205.466 99.3423 205.444C99.3862 205.422 99.4338 205.408 99.4827 205.405C99.5809 205.4 99.6775 205.432 99.752 205.496C99.8266 205.561 99.8735 205.651 99.8829 205.749L101.355 225.839C101.362 225.938 101.33 226.035 101.265 226.11C101.2 226.185 101.109 226.231 101.01 226.239L100.98 226.24Z" fill="#0C0C0C"></path>
</svg>