<svg width="392" height="784" viewBox="0 0 392 784" fill="none" xmlns="http://www.w3.org/2000/svg">
<path d="M181.4 177.118L195.167 155.7C195.47 155.23 195.867 154.827 196.334 154.519C196.801 154.211 197.326 154.003 197.878 153.909C198.429 153.815 198.994 153.837 199.537 153.973C200.079 154.109 200.587 154.357 201.029 154.7C201.824 155.359 202.347 156.29 202.494 157.313C202.642 158.335 202.405 159.376 201.829 160.234L198.877 164.827L214.79 154.645C216.539 153.483 219.43 153.175 220.605 155.223C221.109 155.982 221.342 156.89 221.263 157.798C221.185 158.706 220.802 159.561 220.175 160.223C220.19 160.236 220.204 160.251 220.215 160.268C220.222 160.282 220.227 160.297 220.232 160.312L222.932 158.518C223.432 158.186 223.999 157.97 224.593 157.885C225.187 157.801 225.793 157.85 226.365 158.029C226.938 158.208 227.463 158.512 227.903 158.92C228.343 159.328 228.687 159.829 228.909 160.386C229.241 161.271 229.259 162.242 228.961 163.139C228.662 164.035 228.064 164.802 227.268 165.311L226.119 166.074C226.127 166.117 226.127 166.162 226.119 166.205C227.014 165.869 228 165.863 228.899 166.188C229.798 166.512 230.553 167.145 231.028 167.975C231.521 168.898 231.648 169.973 231.383 170.985C231.118 171.998 230.482 172.873 229.6 173.437L226.749 175.332C226.808 175.333 226.867 175.349 226.919 175.377C226.971 175.406 227.016 175.447 227.049 175.496C227.086 175.556 227.104 175.626 227.101 175.696C227.981 175.618 228.862 175.832 229.609 176.304C230.356 176.776 230.927 177.481 231.234 178.309C231.54 179.186 231.54 180.14 231.236 181.017C230.931 181.895 230.339 182.643 229.556 183.142L205.497 199.133C202.131 201.37 198.174 202.551 194.133 202.524C190.092 202.497 186.151 201.264 182.815 198.983V198.983C179.939 197.015 177.944 194.004 177.253 190.589C176.562 187.174 177.23 183.624 179.115 180.693L181.4 177.118Z" fill="#E98862"></path>
<g opacity="0.2">
<path opacity="0.2" d="M204.479 170.373C204.534 170.453 204.618 170.508 204.713 170.527C204.808 170.545 204.907 170.526 204.988 170.473L220.108 160.773C220.185 160.717 220.238 160.634 220.256 160.541C220.274 160.448 220.256 160.351 220.204 160.271C220.153 160.19 220.073 160.133 219.981 160.11C219.888 160.087 219.791 160.1 219.708 160.147L204.588 169.847C204.547 169.873 204.512 169.907 204.484 169.947C204.456 169.987 204.436 170.033 204.426 170.08C204.415 170.128 204.414 170.177 204.423 170.225C204.431 170.273 204.45 170.319 204.476 170.36L204.479 170.373Z" fill="#0C0C0C"></path>
</g>
<g opacity="0.2">
<path opacity="0.2" d="M208.574 177.159C208.629 177.239 208.713 177.293 208.808 177.312C208.903 177.331 209.002 177.312 209.083 177.259L225.957 166.432C226.04 166.378 226.098 166.294 226.119 166.198C226.14 166.102 226.122 166.001 226.069 165.918C226.014 165.837 225.93 165.781 225.834 165.76C225.739 165.739 225.639 165.756 225.555 165.806L208.681 176.633C208.598 176.687 208.54 176.77 208.519 176.867C208.498 176.963 208.516 177.064 208.569 177.147L208.574 177.159Z" fill="#0C0C0C"></path>
</g>
<g opacity="0.2">
<path opacity="0.2" d="M212.967 184.535C213.022 184.615 213.105 184.671 213.2 184.691C213.296 184.711 213.395 184.692 213.476 184.64L226.936 176.003C226.981 175.978 227.02 175.945 227.052 175.905C227.083 175.865 227.106 175.818 227.119 175.769C227.132 175.719 227.134 175.668 227.126 175.617C227.118 175.567 227.1 175.518 227.072 175.475C227.045 175.432 227.008 175.395 226.966 175.367C226.924 175.338 226.876 175.319 226.825 175.31C226.775 175.301 226.724 175.302 226.674 175.314C226.624 175.325 226.577 175.347 226.536 175.378L213.076 184.014C212.993 184.067 212.935 184.151 212.914 184.248C212.893 184.344 212.911 184.445 212.964 184.528L212.967 184.535Z" fill="#0C0C0C"></path>
</g>
<path d="M62.584 142.385L126.291 244.696L86.2729 238.188L179.399 166.232L213.334 210.151L120.208 282.107C114.387 286.605 107.018 288.606 99.7217 287.67C92.4254 286.735 85.7997 282.939 81.302 277.118C81.1353 276.902 80.9723 276.685 80.813 276.466L80.189 275.6L9.75488 177.8L62.584 142.385Z" fill="#367CFF"></path>
<path d="M44.5891 738.985C44.5891 738.985 49.1739 762.756 71.4309 764.085C93.6879 765.414 88.8611 783.141 88.8611 783.141H3.80908V740.647L44.5891 738.985Z" fill="#367CFF"></path>
<path d="M18.355 305.361C18.355 305.361 18.6209 298.215 18.5649 314.424C18.3549 374.887 17.3049 443.949 14.7419 484.363C10.6209 549.33 0.0549316 754.156 0.0549316 754.156L55.9441 753.687L110.113 302.904L18.355 305.361Z" fill="#262626"></path>
<path d="M81.468 376.66C81.468 376.66 83.7841 420.537 84.2141 430.838C85.2081 454.66 85.553 479.325 85.553 507.291L94.3621 433.979C94.3621 433.979 87.915 411 81.468 376.66Z" fill="#0A0A0A"></path>
<path d="M144.086 738.985C144.086 738.985 148.672 762.756 170.928 764.085C193.184 765.414 188.358 783.141 188.358 783.141H103.306V740.647L144.086 738.985Z" fill="#367CFF"></path>
<path d="M171.147 310.056C171.147 310.056 176.097 516.702 175.372 526.802L154.587 752.591L99.6221 753.606L104.978 518.636C104.978 518.636 101.2 453.819 85.54 393.636C77.5272 362.746 72.7049 331.115 71.1489 299.241V299.241L171.147 310.056Z" fill="#262626"></path>
<path d="M17.7471 305.354L17.564 305.365C17.564 305.365 17.7001 301.84 17.7471 305.354Z" fill="#333333"></path>
<path d="M179.014 195.354C177.861 208.895 172.255 293.376 171.147 310.054H18.4159C17.5539 295.01 13.6789 229.231 10.4079 199.813C7.28385 171.742 6.8619 157.213 11.3539 148.913C18.6929 135.349 33.0429 127.986 46.7179 126.134C55.0689 125.004 67.6278 124.193 67.6278 124.193C67.6278 124.193 68.692 145.706 94.049 146.903C128.567 148.532 126.262 124.193 126.433 124.193C132.025 124.193 160.257 126.826 167.458 132.366C182.844 144.207 181.461 166.658 179.014 195.354Z" fill="#367CFF"></path>
<path d="M140.433 124.975C140.272 124.954 135.866 141.538 101.473 138.957C77.6629 137.174 71.858 120.967 71.312 120.967C73.879 120.421 78.048 119.855 79.188 119.246C82.937 117.232 85.668 114.779 87.043 109.517C88.118 105.401 88.666 89.5569 88.666 81.6079L125.304 89.8408C124.793 98.8078 121.219 119.596 133.746 123.275C135.831 123.884 138.076 124.443 140.433 124.975Z" fill="#E98862"></path>
<path d="M124.036 107.47C109.593 108.61 91.0358 102.511 87.5138 83.241L84.3339 65.8531C80.8099 46.5831 88.0739 29.1101 106.218 25.7921C124.362 22.4741 140.781 35.6151 144.305 54.8861L145.713 62.5861C147.065 69.9771 149.807 105.437 124.036 107.47Z" fill="#E98862"></path>
<path d="M137.429 89.777C134.836 76.751 133.647 68.059 133.785 58.89C137.437 52.485 136.477 45.1331 135.647 41.9561C138.161 43.5539 141.118 44.3122 144.091 44.122C144.091 44.122 138.052 19.8851 117.526 13.3631C113.751 11.8941 104.114 10.038 91.3182 11.793C80.4342 13.286 53.6051 21.4241 49.7721 51.6281V51.6451C49.6451 52.6451 47.0722 80.476 41.9332 93.828C35.0332 111.777 25.3331 117.354 25.5831 138.063C25.8961 164.463 90.083 167.221 104.41 166.255C133.948 164.262 150.437 154.549 150.651 135.355C150.888 113.843 142.616 115.84 137.429 89.777Z" fill="#0A0A0A"></path>
<path d="M384.816 1.56299H186.636C183.261 1.56299 180.525 4.29894 180.525 7.67395V170.124C180.525 173.499 183.261 176.235 186.636 176.235H384.816C388.191 176.235 390.927 173.499 390.927 170.124V7.67395C390.927 4.29894 388.191 1.56299 384.816 1.56299Z" fill="#367CFF"></path>
<path opacity="0.3" d="M384.816 1.56299H186.636C183.261 1.56299 180.525 4.29894 180.525 7.67395V170.124C180.525 173.499 183.261 176.235 186.636 176.235H384.816C388.191 176.235 390.927 173.499 390.927 170.124V7.67395C390.927 4.29894 388.191 1.56299 384.816 1.56299Z" fill="white"></path>
<path opacity="0.8" d="M253.906 70.896C262.314 70.896 269.13 64.08 269.13 55.672C269.13 47.264 262.314 40.448 253.906 40.448C245.498 40.448 238.682 47.264 238.682 55.672C238.682 64.08 245.498 70.896 253.906 70.896Z" fill="white"></path>
<path opacity="0.5" d="M274.871 126.853L319.006 77.617C321.761 74.5435 325.617 72.6801 329.737 72.431C333.857 72.1818 337.909 73.567 341.015 76.2861L390.927 119.986V176.234H330.594" fill="white"></path>
<path opacity="0.8" d="M330.594 176.235L234.894 91.4261C232.066 88.9198 228.429 87.5188 224.65 87.4808C220.872 87.4427 217.207 88.7702 214.329 91.2191L180.529 119.987V176.235" fill="white"></path>
<path d="M384.816 177.16H186.636C184.771 177.158 182.982 176.416 181.663 175.097C180.344 173.778 179.602 171.989 179.6 170.124V7.67505C179.602 5.80946 180.344 4.0208 181.663 2.70154C182.982 1.38227 184.77 0.640057 186.636 0.637939H384.816C386.682 0.640057 388.47 1.38227 389.789 2.70154C391.108 4.0208 391.85 5.80946 391.852 7.67505V170.124C391.85 171.989 391.108 173.778 389.789 175.097C388.47 176.416 386.681 177.158 384.816 177.16ZM186.636 2.48804C185.261 2.48963 183.943 3.0366 182.97 4.00903C181.998 4.98147 181.451 6.29995 181.45 7.67505V170.124C181.452 171.499 181.998 172.817 182.971 173.789C183.943 174.762 185.261 175.308 186.636 175.31H384.816C386.191 175.308 387.509 174.762 388.481 173.789C389.453 172.817 390 171.499 390.002 170.124V7.67505C390.001 6.29995 389.454 4.98147 388.482 4.00903C387.509 3.0366 386.191 2.48963 384.816 2.48804H186.636Z" fill="#292A2E"></path>
<path d="M302.351 177.118L316.118 155.7C316.421 155.23 316.818 154.828 317.285 154.519C317.751 154.211 318.277 154.003 318.828 153.909C319.38 153.815 319.944 153.837 320.487 153.973C321.029 154.109 321.538 154.357 321.979 154.7C322.774 155.359 323.297 156.29 323.444 157.313C323.592 158.335 323.355 159.376 322.779 160.234L319.827 164.827L335.74 154.645C337.489 153.483 340.379 153.175 341.554 155.223C342.059 155.982 342.292 156.89 342.213 157.798C342.135 158.706 341.751 159.561 341.124 160.223C341.14 160.236 341.153 160.251 341.165 160.268C341.172 160.282 341.177 160.297 341.182 160.312L343.882 158.518C344.382 158.186 344.95 157.97 345.544 157.885C346.137 157.801 346.743 157.85 347.315 158.029C347.888 158.208 348.414 158.512 348.854 158.92C349.294 159.328 349.637 159.829 349.859 160.386C350.191 161.271 350.209 162.243 349.91 163.139C349.612 164.036 349.014 164.803 348.217 165.311L347.069 166.074C347.077 166.117 347.077 166.162 347.069 166.205C347.964 165.869 348.95 165.863 349.849 166.188C350.748 166.512 351.503 167.145 351.978 167.975C352.471 168.898 352.598 169.973 352.333 170.985C352.068 171.998 351.432 172.873 350.55 173.437L347.699 175.332C347.759 175.333 347.817 175.349 347.869 175.377C347.921 175.406 347.966 175.447 347.999 175.496C348.036 175.556 348.054 175.626 348.051 175.696C348.931 175.618 349.812 175.832 350.559 176.304C351.306 176.776 351.877 177.481 352.184 178.309C352.49 179.186 352.49 180.14 352.185 181.017C351.881 181.894 351.289 182.643 350.506 183.142L326.447 199.133C323.081 201.37 319.124 202.551 315.083 202.524C311.042 202.497 307.101 201.264 303.765 198.983V198.983C300.888 197.016 298.892 194.005 298.2 190.59C297.508 187.175 298.175 183.624 300.059 180.693L302.351 177.118Z" fill="#E98862"></path>
<g opacity="0.2">
<path opacity="0.2" d="M325.427 170.373C325.482 170.453 325.566 170.508 325.661 170.527C325.756 170.545 325.855 170.526 325.936 170.473L341.056 160.773C341.133 160.717 341.186 160.634 341.204 160.541C341.222 160.448 341.203 160.351 341.152 160.271C341.101 160.19 341.021 160.133 340.928 160.11C340.836 160.087 340.739 160.1 340.656 160.147L325.536 169.847C325.453 169.9 325.395 169.984 325.374 170.08C325.353 170.176 325.371 170.277 325.424 170.36L325.427 170.373Z" fill="#0C0C0C"></path>
</g>
<g opacity="0.2">
<path opacity="0.2" d="M329.522 177.159C329.577 177.239 329.661 177.293 329.756 177.312C329.851 177.331 329.95 177.312 330.031 177.259L346.905 166.432C346.988 166.378 347.046 166.294 347.067 166.198C347.088 166.102 347.07 166.001 347.017 165.918C346.962 165.837 346.878 165.781 346.782 165.76C346.687 165.739 346.587 165.756 346.503 165.806L329.629 176.633C329.546 176.686 329.488 176.77 329.467 176.867C329.446 176.963 329.464 177.064 329.517 177.147L329.522 177.159Z" fill="#0C0C0C"></path>
</g>
<g opacity="0.2">
<path opacity="0.2" d="M333.915 184.535C333.969 184.615 334.053 184.671 334.148 184.691C334.243 184.711 334.342 184.692 334.424 184.64L347.884 176.003C347.929 175.978 347.968 175.945 348 175.905C348.031 175.865 348.054 175.818 348.067 175.769C348.08 175.719 348.082 175.668 348.074 175.617C348.066 175.567 348.048 175.518 348.02 175.475C347.992 175.432 347.956 175.395 347.914 175.367C347.871 175.338 347.823 175.319 347.773 175.31C347.723 175.301 347.671 175.302 347.622 175.314C347.572 175.325 347.525 175.347 347.484 175.378L334.024 184.014C333.941 184.067 333.883 184.151 333.862 184.248C333.841 184.344 333.859 184.445 333.912 184.528L333.915 184.535Z" fill="#0C0C0C"></path>
</g>
<path d="M171.965 137.514L246.389 243.497L207.221 238.188L300.347 166.232L334.282 210.151L241.155 282.107C235.402 286.552 228.133 288.561 220.914 287.7C213.695 286.84 207.102 283.18 202.555 277.507L201.988 276.798L121.088 175.674L171.965 137.514Z" fill="#367CFF"></path>
</svg>