<svg width="644" height="487" viewBox="0 0 644 487" fill="none" xmlns="http://www.w3.org/2000/svg">
<path d="M525.732 76.249C525.732 76.249 528.449 108.422 535.903 119.979C557.362 153.252 564.077 190.993 543.536 211.136C522.995 231.279 389.745 233.916 378.844 188.616C369.667 150.478 387.832 146.037 391.71 114.373C393.464 100.045 398.457 69.979 398.457 69.979" fill="#0A0A0A"></path>
<path d="M412.035 180.854C412.265 180.824 414.818 223.185 464.028 219.492C498.096 216.939 510.243 180.792 511.028 180.792C507.355 180.011 501.17 178.876 499.538 178.005C494.174 175.123 487.538 172.123 485.807 161.705C484.807 155.705 486.501 124.983 485.981 118.905L433.687 130.577C434.417 143.408 439.531 173.152 421.607 178.416C418.62 179.293 415.408 180.094 412.035 180.854Z" fill="#E98862"></path>
<path opacity="0.5" d="M432.949 166.266C433.768 163.626 434.296 160.905 434.523 158.15C435.097 151.864 434.983 145.534 434.181 139.273C444.809 137.838 454.821 133.451 463.081 126.61C464.052 130.196 469.392 145.866 467.914 149.274C465.121 155.717 451.987 166.266 432.949 166.266Z" fill="#0C0C0C"></path>
<path d="M440.4 153.064C461.049 154.693 487.575 145.975 492.614 118.425L497.16 93.566C502.199 66.016 491.813 41.036 465.873 36.292C439.934 31.548 416.46 50.336 411.422 77.886L409.409 88.886C407.474 99.462 403.555 150.157 440.4 153.064Z" fill="#E98862"></path>
<path opacity="0.5" d="M431.966 114.96L431.915 114.953C430.865 114.753 429.826 114.495 428.804 114.181C427.277 113.7 425.276 112.901 425.528 111.524C425.814 109.954 433.212 93.8031 434.055 91.9671C434.09 91.8846 434.141 91.8099 434.205 91.7474C434.268 91.6849 434.344 91.636 434.428 91.6034C434.511 91.5709 434.6 91.5554 434.689 91.558C434.778 91.5606 434.866 91.5811 434.948 91.6184C435.029 91.6556 435.102 91.7089 435.162 91.7749C435.222 91.841 435.269 91.9185 435.298 92.0028C435.328 92.0871 435.34 92.1766 435.335 92.2658C435.329 92.355 435.306 92.4421 435.266 92.5221C432.11 99.4001 427.03 110.706 426.837 111.763C427.012 112.251 429.547 113.163 432.155 113.643C432.323 113.675 432.473 113.771 432.572 113.911C432.671 114.05 432.713 114.222 432.689 114.392C432.665 114.561 432.576 114.715 432.441 114.82C432.307 114.926 432.137 114.976 431.966 114.96V114.96Z" fill="#0C0C0C"></path>
<path opacity="0.5" d="M435.877 126.817C431.647 126.294 427.599 124.785 424.06 122.411C423.984 122.365 423.917 122.304 423.865 122.232C423.813 122.16 423.775 122.078 423.755 121.991C423.735 121.905 423.732 121.815 423.748 121.727C423.763 121.639 423.796 121.556 423.844 121.481C423.892 121.406 423.955 121.341 424.028 121.291C424.102 121.241 424.184 121.206 424.272 121.188C424.359 121.17 424.449 121.17 424.536 121.188C424.623 121.206 424.706 121.241 424.78 121.291C432.438 126.214 440.022 126.971 446.711 123.481C446.846 123.407 446.985 123.34 447.128 123.281C447.291 123.228 447.47 123.24 447.624 123.315C447.779 123.39 447.899 123.523 447.959 123.684C448.018 123.846 448.013 124.024 447.944 124.182C447.874 124.34 447.747 124.464 447.588 124.53C447.535 124.552 447.448 124.599 447.327 124.663C443.809 126.504 439.823 127.254 435.877 126.817V126.817Z" fill="#0C0C0C"></path>
<path d="M517.939 102.092L494.686 97.9771C477.053 90.9671 471.546 60.549 471.546 60.549C471.546 60.549 450.308 81.5051 398.457 69.9791C398.457 69.9791 408.395 -2.29395 485.018 18.2321C509.725 24.8511 527.58 49.597 525.58 82.832C524.177 106.12 517.939 102.092 517.939 102.092Z" fill="#0A0A0A"></path>
<path d="M489.466 126.523C497.349 127.965 505.28 120.7 506.722 112.817C508.164 104.934 502.569 99.4171 494.686 97.9771L489.657 102.516L482.688 125.284L489.466 126.523Z" fill="#E98862"></path>
<path d="M428.258 79.3001C426.27 77.945 423.959 77.141 421.559 76.9701C420.352 76.8759 419.138 76.9646 417.958 77.2331C416.768 77.4979 415.616 77.9108 414.528 78.4621L414.495 78.4791C414.373 78.5386 414.233 78.5476 414.106 78.504C413.978 78.4604 413.872 78.3678 413.813 78.2466C413.753 78.1254 413.744 77.9855 413.788 77.8577C413.832 77.7299 413.924 77.6246 414.045 77.5651C415.196 76.9311 416.423 76.4447 417.695 76.1171C418.977 75.7814 420.302 75.6401 421.626 75.6981C424.308 75.8004 426.913 76.6191 429.17 78.0691C429.254 78.124 429.327 78.195 429.383 78.2779C429.44 78.3608 429.48 78.4541 429.5 78.5523C429.521 78.6506 429.521 78.7519 429.503 78.8505C429.484 78.9491 429.446 79.0431 429.392 79.1271C429.337 79.2111 429.265 79.2834 429.183 79.34C429.1 79.3965 429.006 79.4362 428.908 79.4567C428.81 79.4772 428.709 79.4782 428.61 79.4596C428.511 79.4409 428.417 79.403 428.333 79.3481L428.315 79.3361L428.258 79.3001Z" fill="#0C0C0C"></path>
<path d="M449.479 81.8471C452.102 81.2763 454.83 81.4203 457.379 82.2641C458.639 82.673 459.831 83.2686 460.915 84.0311C461.992 84.7834 462.971 85.6684 463.828 86.6651C463.918 86.7635 463.967 86.8936 463.962 87.0273C463.958 87.161 463.901 87.2875 463.803 87.3795C463.706 87.4714 463.577 87.5215 463.443 87.5188C463.309 87.5161 463.182 87.4609 463.089 87.3651L463.061 87.3371C462.236 86.44 461.301 85.6502 460.279 84.9861C459.267 84.3219 458.161 83.8145 456.998 83.4811C454.687 82.7995 452.237 82.7429 449.898 83.3171L449.84 83.3321C449.742 83.3602 449.639 83.3684 449.538 83.3562C449.437 83.3441 449.339 83.3118 449.251 83.2614C449.162 83.2109 449.085 83.1433 449.023 83.0625C448.961 82.9817 448.916 82.8893 448.89 82.7907C448.864 82.6922 448.858 82.5895 448.873 82.4887C448.888 82.3879 448.922 82.291 448.975 82.2037C449.027 82.1164 449.097 82.0406 449.179 81.9805C449.261 81.9205 449.355 81.8775 449.454 81.8541L449.479 81.8471Z" fill="#0C0C0C"></path>
<path opacity="1" d="M435.017 133.07C434.251 132.988 433.493 132.841 432.752 132.63C432.666 132.608 432.585 132.569 432.514 132.516C432.443 132.462 432.384 132.395 432.339 132.318C432.295 132.241 432.266 132.156 432.255 132.068C432.244 131.98 432.251 131.89 432.275 131.805C432.299 131.719 432.34 131.639 432.395 131.57C432.45 131.5 432.519 131.442 432.597 131.4C432.675 131.357 432.761 131.331 432.849 131.322C432.938 131.313 433.027 131.322 433.112 131.348C437.573 132.603 440.095 130.889 440.2 130.815C440.344 130.718 440.521 130.68 440.692 130.711C440.863 130.742 441.015 130.839 441.116 130.981C441.217 131.122 441.258 131.298 441.231 131.47C441.204 131.641 441.111 131.796 440.972 131.9C439.182 132.966 437.078 133.379 435.017 133.07V133.07Z" fill="#0C0C0C"></path>
<path d="M494.664 97.6001C478.984 92.0791 473.625 81.4121 471.891 73.4361C470.767 68.1155 470.767 62.6187 471.891 57.2981L472.375 57.4221C471.269 62.6736 471.273 68.0981 472.386 73.3481C474.097 81.1941 479.38 91.6881 494.833 97.1291L494.664 97.6001Z" fill="#0C0C0C"></path>
<path opacity="0.1" d="M459.486 112.967C459.739 110.474 457.188 108.173 453.788 107.829C450.389 107.484 447.428 109.226 447.175 111.719C446.922 114.213 449.473 116.514 452.873 116.858C456.272 117.203 459.233 115.461 459.486 112.967Z" fill="#0C0C0C"></path>
<path opacity="0.1" d="M416.841 107.546C416.581 110.036 413.621 111.776 410.221 111.436C409.633 111.376 409.053 111.255 408.491 111.076C408.281 108.116 408.221 105.266 408.261 102.626C409.199 102.374 410.175 102.299 411.141 102.406C414.541 102.746 417.091 105.046 416.841 107.546Z" fill="#0C0C0C"></path>
<path d="M566.619 432.54L575.524 486.828H353.425L361.727 432.212L566.619 432.54Z" fill="#262626"></path>
<path d="M465.158 208.964C499.25 207.357 500.685 178.42 500.685 178.42C500.685 178.42 517.577 179.512 528.806 181.031C547.19 183.519 559.349 188.962 569.006 198.614C577.984 207.592 583.419 218.096 577.634 280.114C573.446 325.02 566.624 432.54 566.624 432.54L361.732 432.212C361.732 432.212 352.615 294.329 350.895 274.112C347.613 235.522 342.43 181.133 353.43 178.417C366.246 175.254 408.078 180.454 421.608 178.417C421.831 178.388 418.73 211.152 465.158 208.964Z" fill="#367CFF"></path>
<path d="M92.027 57.706C91.7288 57.0329 91.2964 56.4276 90.7565 55.9271C90.2166 55.4266 89.5805 55.0414 88.8868 54.7949C88.1932 54.5484 87.4564 54.4459 86.7218 54.4935C85.9872 54.5411 85.27 54.738 84.6139 55.072C83.3663 55.7622 82.4275 56.9005 81.9872 58.2566C81.5469 59.6127 81.6378 61.0854 82.2418 62.377L85.2069 69.068L66.1588 52.247C64.0728 50.34 60.2949 49.334 58.3099 51.814C57.4845 52.7181 56.9899 53.8754 56.9071 55.0968C56.8243 56.3182 57.1581 57.5317 57.8539 58.539C57.8293 58.5551 57.8063 58.5739 57.7858 58.595C57.7738 58.6121 57.7631 58.6302 57.7538 58.649L54.5389 55.708C53.9465 55.1663 53.2412 54.7629 52.474 54.5267C51.7068 54.2906 50.8969 54.2277 50.1024 54.3425C49.308 54.4572 48.5487 54.7469 47.8798 55.1906C47.2108 55.6342 46.6486 56.2208 46.2338 56.908C45.5957 58.0173 45.3606 59.3129 45.568 60.5757C45.7754 61.8386 46.4127 62.9909 47.372 63.838L48.7409 65.09C48.7215 65.1475 48.7134 65.2083 48.7169 65.269C47.6078 64.6433 46.3137 64.4284 45.0619 64.6621C43.8101 64.8958 42.6806 65.5632 41.872 66.547C41.0067 67.6801 40.6036 69.0994 40.7445 70.5181C40.8854 71.9368 41.5598 73.2492 42.631 74.19L45.9999 77.27C45.9208 77.2597 45.8405 77.2685 45.7655 77.2957C45.6905 77.3228 45.6232 77.3675 45.569 77.426C45.5081 77.4987 45.4697 77.5877 45.4589 77.682C44.3359 77.4046 43.1536 77.4937 42.0848 77.9363C41.0161 78.379 40.117 79.1518 39.5189 80.142C38.8809 81.2513 38.6455 82.5469 38.8529 83.8097C39.0603 85.0725 39.6976 86.225 40.6569 87.072L69.3339 113.298C73.3456 116.967 78.3617 119.354 83.7391 120.154C89.1166 120.954 94.6103 120.129 99.516 117.786L115.316 110.242L92.027 57.706Z" fill="#E98862"></path>
<g opacity="0.2">
<path opacity="0.2" d="M76.621 75.2869C76.5321 75.3832 76.4087 75.4407 76.2778 75.4471C76.1469 75.4534 76.0187 75.4081 75.9208 75.3209L57.8269 59.3009C57.7275 59.213 57.6672 59.0892 57.6591 58.9568C57.6511 58.8244 57.696 58.6942 57.7839 58.5949C57.8718 58.4956 57.9957 58.4353 58.1281 58.4272C58.2605 58.4191 58.3906 58.464 58.4899 58.5519L76.5839 74.5719C76.6331 74.6154 76.6733 74.6682 76.7021 74.7273C76.7309 74.7863 76.7477 74.8504 76.7517 74.916C76.7557 74.9816 76.7467 75.0473 76.7253 75.1094C76.7039 75.1715 76.6705 75.2287 76.6269 75.2779L76.621 75.2869Z" fill="#0C0C0C"></path>
</g>
<g opacity="0.2">
<path opacity="0.2" d="M69.7758 83.462C69.6869 83.5583 69.5637 83.6158 69.4328 83.6221C69.3018 83.6285 69.1737 83.5832 69.0758 83.496L48.882 65.618C48.8329 65.5744 48.7928 65.5215 48.7641 65.4625C48.7354 65.4034 48.7187 65.3392 48.7148 65.2737C48.7109 65.2081 48.7199 65.1424 48.7414 65.0803C48.7629 65.0183 48.7964 64.9611 48.84 64.912C48.9302 64.8164 49.0533 64.7588 49.1845 64.7508C49.3156 64.7428 49.4447 64.7851 49.5458 64.869L69.7389 82.747C69.7881 82.7905 69.8283 82.8433 69.8571 82.9023C69.8859 82.9614 69.9027 83.0255 69.9066 83.0911C69.9106 83.1566 69.9017 83.2223 69.8803 83.2844C69.8589 83.3465 69.8254 83.4038 69.7819 83.453L69.7758 83.462Z" fill="#0C0C0C"></path>
</g>
<g opacity="0.2">
<path opacity="0.2" d="M62.413 92.359C62.3241 92.4552 62.2009 92.5128 62.07 92.5191C61.9391 92.5255 61.8107 92.4802 61.7128 92.393L45.6049 78.132C45.5557 78.0884 45.5155 78.0356 45.4868 77.9766C45.458 77.9176 45.4412 77.8534 45.4372 77.7879C45.4332 77.7223 45.4422 77.6566 45.4636 77.5945C45.485 77.5324 45.5184 77.4751 45.562 77.426C45.6055 77.3768 45.6582 77.3367 45.7172 77.3079C45.7763 77.2791 45.8404 77.2622 45.906 77.2582C45.9715 77.2543 46.0372 77.2632 46.0993 77.2846C46.1614 77.306 46.2188 77.3394 46.268 77.383L62.3759 91.644C62.4251 91.6875 62.4653 91.7403 62.4941 91.7993C62.5229 91.8584 62.5397 91.9225 62.5436 91.9881C62.5476 92.0536 62.5387 92.1193 62.5173 92.1814C62.4959 92.2435 62.4624 92.3008 62.4189 92.35L62.413 92.359Z" fill="#0C0C0C"></path>
</g>
<path d="M110.293 76.249L218.874 165.2L379.185 178.76C388.824 179.568 397.779 184.069 404.177 191.324C410.576 198.578 413.923 208.025 413.521 217.689C413.118 227.354 408.997 236.489 402.017 243.187C395.038 249.884 385.74 253.625 376.067 253.629C375.006 253.629 373.939 253.584 372.867 253.493L200.758 238.936C193.079 238.286 185.787 235.286 179.873 230.345L66.1499 129.456L110.293 76.249Z" fill="#367CFF"></path>
<path d="M80.676 92.519L0.885986 76.649L13.4561 13.45L33.988 0.286987L96.5459 12.729L80.676 92.519Z" fill="#0CBC8B"></path>
<path opacity="0.29" d="M33.988 0.286987L13.4561 13.45L30.731 17.187L33.988 0.286987Z" fill="#FFFFFA"></path>
<g opacity="0.88">
<path opacity="0.88" d="M81.736 41.065C81.6689 41.0648 81.6017 41.0581 81.5358 41.045L20.0271 28.565C19.7671 28.512 19.5388 28.3579 19.3925 28.1366C19.2463 27.9153 19.194 27.645 19.247 27.385C19.3001 27.1251 19.4542 26.8969 19.6755 26.7507C19.8968 26.6044 20.167 26.552 20.427 26.605L81.935 39.085C82.178 39.1344 82.3939 39.2723 82.541 39.4719C82.6881 39.6716 82.7558 39.9188 82.7309 40.1655C82.706 40.4123 82.5902 40.641 82.4062 40.8072C82.2222 40.9734 81.9831 41.0653 81.7351 41.065H81.736Z" fill="white"></path>
<path opacity="0.88" d="M79.4718 52.7611C79.4047 52.7613 79.3377 52.7546 79.2719 52.7411L17.7629 40.2621C17.5029 40.209 17.2749 40.0549 17.1286 39.8336C16.9823 39.6123 16.9298 39.342 16.9828 39.0821C17.0359 38.8222 17.19 38.594 17.4113 38.4477C17.6326 38.3014 17.9031 38.249 18.163 38.3021L79.6708 50.7811C79.9138 50.8304 80.1299 50.9683 80.277 51.168C80.4241 51.3676 80.4919 51.6148 80.467 51.8616C80.442 52.1083 80.3263 52.337 80.1423 52.5032C79.9582 52.6694 79.7189 52.7613 79.4709 52.7611H79.4718Z" fill="white"></path>
<path opacity="0.88" d="M77.0348 65.666C76.9677 65.6657 76.9008 65.659 76.8349 65.646L15.3258 53.166C15.0659 53.113 14.8378 52.9588 14.6916 52.7376C14.5453 52.5163 14.4928 52.2459 14.5458 51.986C14.5989 51.7261 14.753 51.4979 14.9743 51.3516C15.1956 51.2053 15.4661 51.153 15.726 51.206L77.2338 63.686C77.4768 63.7354 77.6929 63.8732 77.84 64.0729C77.9871 64.2726 78.0549 64.5198 78.0299 64.7665C78.005 65.0132 77.8893 65.2419 77.7052 65.4081C77.5212 65.5743 77.2818 65.6663 77.0339 65.666H77.0348Z" fill="white"></path>
<path opacity="0.88" d="M40.7399 70.305C40.6728 70.3052 40.6058 70.2985 40.54 70.285L13.258 64.75C12.9981 64.6969 12.7698 64.5428 12.6235 64.3215C12.4772 64.1002 12.4249 63.8299 12.478 63.57C12.531 63.3101 12.6852 63.0819 12.9065 62.9356C13.1277 62.7893 13.398 62.7369 13.6579 62.79L40.9409 68.325C41.1839 68.3743 41.4 68.5122 41.5471 68.7119C41.6942 68.9116 41.7619 69.1588 41.737 69.4055C41.7121 69.6522 41.5964 69.8809 41.4123 70.0471C41.2283 70.2133 40.9889 70.3052 40.7409 70.305H40.7399Z" fill="white"></path>
</g>
<path d="M86.2069 71.567L82.2418 62.377C81.6378 61.0855 81.5469 59.6127 81.9872 58.2566C82.4275 56.9005 83.3663 55.7623 84.6139 55.072C85.27 54.738 85.9872 54.5412 86.7218 54.4935C87.4565 54.4459 88.1932 54.5485 88.8869 54.7949C89.5806 55.0414 90.2166 55.4267 90.7565 55.9272C91.2964 56.4277 91.7288 57.0329 92.027 57.706" fill="#E98862"></path>
<path d="M445.414 307.692L419.042 285.837C418.475 285.367 417.818 285.018 417.112 284.81C416.406 284.603 415.665 284.541 414.934 284.629C414.203 284.718 413.497 284.954 412.861 285.324C412.224 285.694 411.67 286.19 411.231 286.781C410.421 287.955 410.087 289.393 410.297 290.804C410.507 292.215 411.245 293.494 412.362 294.381L417.997 299.051L444.519 312.786L445.414 307.692Z" fill="#E98862"></path>
<path d="M418 299.048L393.453 292.473C390.736 291.694 386.905 292.473 386.233 295.581C385.895 296.759 385.967 298.016 386.437 299.147C386.906 300.279 387.746 301.218 388.818 301.811C388.804 301.835 388.792 301.86 388.784 301.886C388.779 301.907 388.784 301.927 388.784 301.948L384.595 300.748C383.823 300.527 383.012 300.48 382.22 300.611C381.428 300.741 380.674 301.046 380.014 301.503C379.354 301.96 378.804 302.557 378.403 303.253C378.002 303.948 377.76 304.724 377.695 305.524C377.617 306.802 377.983 308.067 378.732 309.106C379.48 310.145 380.564 310.893 381.801 311.224L383.584 311.735C383.592 311.793 383.612 311.85 383.641 311.901C382.369 311.836 381.114 312.222 380.098 312.99C379.082 313.758 378.369 314.859 378.084 316.101C377.815 317.5 378.087 318.949 378.845 320.156C379.603 321.362 380.79 322.236 382.168 322.601L386.55 323.857C386.474 323.883 386.407 323.927 386.352 323.985C386.297 324.042 386.256 324.112 386.234 324.189C386.211 324.281 386.216 324.377 386.248 324.466C385.119 324.718 384.1 325.325 383.341 326.197C382.582 327.07 382.121 328.162 382.027 329.315C381.949 330.593 382.315 331.858 383.063 332.897C383.812 333.936 384.896 334.684 386.133 335.015L423.49 345.721C428.716 347.219 434.27 347.122 439.441 345.442C444.611 343.762 449.162 340.577 452.511 336.294L463.292 322.504L418 299.048Z" fill="#E98862"></path>
<g opacity="0.2">
<path opacity="0.2" d="M413.08 308.439C413.043 308.564 412.959 308.67 412.845 308.734C412.731 308.798 412.596 308.815 412.47 308.781L389.134 302.499C389.006 302.464 388.897 302.38 388.83 302.266C388.764 302.151 388.746 302.014 388.781 301.886C388.815 301.758 388.899 301.649 389.014 301.582C389.129 301.516 389.266 301.498 389.394 301.533L412.73 307.815C412.793 307.832 412.853 307.861 412.905 307.901C412.957 307.941 413.001 307.991 413.033 308.048C413.066 308.105 413.087 308.168 413.096 308.233C413.104 308.298 413.1 308.365 413.083 308.428L413.08 308.439Z" fill="#0C0C0C"></path>
</g>
<g opacity="0.2">
<path opacity="0.2" d="M410.593 318.808C410.556 318.933 410.471 319.039 410.357 319.103C410.243 319.167 410.109 319.183 409.982 319.149L383.94 312.138C383.876 312.121 383.817 312.092 383.765 312.052C383.713 312.011 383.669 311.962 383.636 311.905C383.603 311.848 383.582 311.785 383.574 311.72C383.565 311.655 383.569 311.588 383.586 311.525C383.625 311.4 383.71 311.294 383.824 311.228C383.938 311.163 384.072 311.143 384.2 311.173L410.243 318.184C410.371 318.219 410.48 318.303 410.546 318.418C410.612 318.533 410.63 318.669 410.596 318.797L410.593 318.808Z" fill="#0C0C0C"></path>
</g>
<g opacity="0.2">
<path opacity="0.2" d="M407.964 330.053C407.927 330.178 407.843 330.284 407.729 330.348C407.615 330.412 407.481 330.429 407.355 330.395L386.58 324.8C386.452 324.765 386.342 324.681 386.276 324.566C386.21 324.451 386.193 324.315 386.227 324.186C386.262 324.058 386.346 323.949 386.461 323.883C386.576 323.817 386.713 323.799 386.841 323.834L407.615 329.426C407.678 329.443 407.738 329.472 407.79 329.512C407.842 329.552 407.885 329.602 407.918 329.659C407.951 329.716 407.972 329.779 407.981 329.844C407.989 329.909 407.985 329.976 407.968 330.039L407.964 330.053Z" fill="#0C0C0C"></path>
</g>
<path d="M426.338 355.418L596 404.393C602.834 406.207 610.042 406.052 616.791 403.946C623.541 401.839 629.557 397.868 634.147 392.489C638.736 387.11 641.712 380.544 642.73 373.547C643.748 366.55 642.767 359.407 639.9 352.944L582.056 215.144C580.074 210.62 577.218 206.531 573.652 203.114C570.086 199.696 565.879 197.017 561.274 195.23C556.67 193.443 551.757 192.583 546.819 192.7C541.881 192.817 537.015 193.908 532.5 195.911C527.985 197.914 523.91 200.789 520.509 204.372C517.109 207.954 514.449 212.173 512.684 216.786C510.918 221.399 510.082 226.315 510.222 231.253C510.362 236.19 511.476 241.051 513.5 245.557L548.281 318.022L442.5 293.565L426.338 355.418Z" fill="#367CFF"></path>
<path d="M568.97 397.09C568.923 397.09 568.876 397.083 568.831 397.07L426.2 355.9C426.075 355.864 425.969 355.78 425.905 355.666C425.841 355.553 425.823 355.419 425.856 355.293L442.019 293.44C442.052 293.314 442.132 293.206 442.243 293.138C442.355 293.071 442.488 293.049 442.614 293.078L547.387 317.3L513.056 245.774C513.005 245.655 513.001 245.522 513.046 245.401C513.091 245.28 513.182 245.181 513.298 245.125C513.414 245.069 513.548 245.06 513.67 245.1C513.793 245.14 513.896 245.226 513.956 245.34L548.737 317.805C548.777 317.89 548.792 317.984 548.781 318.077C548.77 318.17 548.733 318.258 548.674 318.331C548.615 318.404 548.538 318.459 548.449 318.489C548.361 318.52 548.266 318.526 548.174 318.505L442.86 294.158L426.943 355.07L569.106 396.107C569.222 396.141 569.321 396.215 569.386 396.316C569.451 396.417 569.478 396.538 569.461 396.657C569.445 396.776 569.386 396.885 569.295 396.964C569.204 397.043 569.088 397.086 568.968 397.087L568.97 397.09Z" fill="#0C0C0C"></path>
<path d="M565.753 322.319C565.717 322.319 565.681 322.316 565.647 322.308L548.182 318.508C548.117 318.495 548.055 318.468 548.001 318.431C547.946 318.394 547.9 318.346 547.864 318.291C547.828 318.235 547.803 318.173 547.791 318.108C547.78 318.043 547.781 317.977 547.795 317.912C547.809 317.847 547.836 317.786 547.873 317.732C547.911 317.678 547.959 317.632 548.015 317.596C548.071 317.561 548.133 317.537 548.198 317.526C548.264 317.514 548.33 317.516 548.395 317.531L565.859 321.331C565.978 321.358 566.085 321.428 566.156 321.528C566.228 321.627 566.26 321.75 566.247 321.872C566.234 321.995 566.176 322.108 566.085 322.19C565.994 322.272 565.875 322.318 565.753 322.319V322.319Z" fill="#0C0C0C"></path>
<path d="M348.984 251.972C348.858 251.972 348.736 251.925 348.644 251.839C348.551 251.754 348.494 251.636 348.484 251.51L346.257 222.671C346.252 222.605 346.26 222.539 346.281 222.477C346.301 222.414 346.334 222.356 346.377 222.306C346.42 222.256 346.472 222.215 346.531 222.186C346.589 222.156 346.654 222.138 346.719 222.133C346.785 222.128 346.851 222.136 346.914 222.157C346.976 222.177 347.034 222.21 347.084 222.253C347.134 222.296 347.175 222.348 347.205 222.407C347.234 222.465 347.252 222.529 347.257 222.595L349.484 251.434C349.494 251.566 349.451 251.697 349.365 251.797C349.279 251.898 349.156 251.96 349.024 251.97C349.011 251.972 348.997 251.972 348.984 251.972Z" fill="#0C0C0C"></path>
<path d="M417.15 88.756C418.944 88.756 420.398 87.3018 420.398 85.508C420.398 83.7142 418.944 82.26 417.15 82.26C415.356 82.26 413.902 83.7142 413.902 85.508C413.902 87.3018 415.356 88.756 417.15 88.756Z" fill="#0C0C0C"></path>
<path d="M450.072 94.318C451.866 94.318 453.32 92.8638 453.32 91.07C453.32 89.2762 451.866 87.822 450.072 87.822C448.278 87.822 446.824 89.2762 446.824 91.07C446.824 92.8638 448.278 94.318 450.072 94.318Z" fill="#0C0C0C"></path>
</svg>