<svg width="532" height="570" viewBox="0 0 532 570" fill="none" xmlns="http://www.w3.org/2000/svg">
<path d="M438.839 175.976C439.116 175.212 439.546 174.512 440.103 173.919C440.66 173.326 441.331 172.853 442.077 172.529C442.823 172.204 443.627 172.035 444.44 172.032C445.253 172.029 446.059 172.191 446.807 172.509C448.234 173.174 449.355 174.357 449.944 175.818C450.532 177.278 450.544 178.908 449.977 180.377L447.22 187.977L464.538 170.318C466.691 168.058 470.778 166.661 473.154 169.242C475.212 171.202 479.97 171.806 480.743 175.48C480.769 175.499 480.721 209.119 478.724 211.216C470.254 220.116 449.777 221.831 438.355 217.316L420.376 210.207L438.839 175.976Z" fill="#E98862"></path>
<g opacity="0.1">
<path opacity="0.1" d="M438.839 175.976C439.116 175.212 439.546 174.512 440.103 173.919C440.66 173.326 441.331 172.853 442.077 172.529C442.823 172.204 443.627 172.035 444.44 172.032C445.253 172.029 446.059 172.191 446.807 172.509C448.234 173.174 449.355 174.357 449.944 175.818C450.532 177.278 450.544 178.908 449.977 180.377L447.22 187.977L464.538 170.318C466.691 168.058 470.778 166.661 473.154 169.242C475.212 171.202 479.97 171.806 480.743 175.48C480.769 175.499 480.721 209.119 478.724 211.216C470.254 220.116 449.777 221.831 438.355 217.316L420.376 210.207L438.839 175.976Z" fill="#0C0C0C"></path>
</g>
<path d="M456.545 212.372C455.892 212.371 455.25 212.215 454.67 211.916C454.091 211.616 453.591 211.183 453.213 210.651C452.835 210.12 452.589 209.505 452.496 208.86C452.404 208.214 452.467 207.555 452.681 206.939L523.564 2.75C523.92 1.7252 524.668 0.883769 525.644 0.410802C526.621 -0.0621645 527.745 -0.12792 528.77 0.228C529.795 0.583921 530.636 1.33236 531.109 2.30868C531.582 3.28499 531.648 4.4092 531.292 5.434L460.409 209.622C460.13 210.425 459.608 211.121 458.916 211.614C458.223 212.107 457.395 212.372 456.545 212.372Z" fill="#0A0A0A"></path>
<path d="M455.8 197C456.09 195.971 456.709 195.066 457.561 194.421C458.414 193.777 459.453 193.429 460.522 193.43C460.508 193.344 460.415 193.147 460.564 193.13L456.885 191.343C455.789 190.841 454.911 189.959 454.415 188.86C453.919 187.762 453.837 186.52 454.185 185.366C454.566 184.238 455.353 183.292 456.392 182.711C457.431 182.13 458.649 181.955 459.81 182.221C459.794 182.176 459.817 182.121 459.816 182.078L458.304 181.343C457.274 180.865 456.441 180.046 455.945 179.024C455.45 178.002 455.323 176.841 455.586 175.736C455.765 175.047 456.095 174.406 456.551 173.859C457.008 173.313 457.58 172.874 458.227 172.576C458.874 172.277 459.578 172.126 460.291 172.133C461.003 172.139 461.704 172.304 462.345 172.615L465.833 174.309C465.839 174.289 465.827 174.269 465.833 174.249C465.839 174.229 465.875 174.218 465.89 174.196C465.038 173.516 464.443 172.567 464.202 171.505C463.961 170.442 464.089 169.329 464.565 168.349C465.627 165.738 469.095 165.639 471.351 166.735L478.189 170.735C479.244 171.353 480.13 172.223 480.768 173.266C481.405 174.309 481.776 175.494 481.845 176.715C482.455 187.278 483.388 214.905 476.188 211.409L458.464 202.802C457.439 202.268 456.621 201.407 456.139 200.357C455.656 199.307 455.537 198.126 455.8 197V197Z" fill="#E98862"></path>
<path d="M76.0933 168.633C76.0933 168.633 73.8984 201.579 66.4864 213.533C45.1474 247.944 38.9653 286.656 60.3343 306.88C81.7033 327.104 218 327.38 228.325 280.868C237.018 241.705 218.363 237.494 213.825 205.187C211.771 190.569 206.125 159.916 206.125 159.916" fill="#0A0A0A"></path>
<path d="M193.046 274.046C192.811 274.015 190.201 317.336 139.875 313.559C105.034 310.949 92.6115 273.985 91.8125 273.985C95.5695 273.185 101.894 272.025 103.563 271.135C109.049 268.187 115.837 265.12 117.605 254.466C118.624 248.325 116.895 216.911 117.428 210.698L170.907 222.635C170.16 235.756 164.93 266.175 183.261 271.559C186.311 272.449 189.6 273.268 193.046 274.046Z" fill="#E98862"></path>
<path opacity="0.5" d="M171.657 259.127C170.82 256.427 170.281 253.644 170.049 250.827C169.46 244.398 169.577 237.924 170.398 231.521C159.528 230.054 149.288 225.568 140.84 218.572C139.847 222.239 134.386 238.264 135.898 241.75C138.756 248.338 152.188 259.127 171.657 259.127Z" fill="#0C0C0C"></path>
<path d="M164.741 245.63C143.657 247.67 116.375 239.237 110.724 211.158L105.624 185.822C99.9723 157.743 110.139 132.012 136.576 126.691C163.014 121.37 187.356 140.156 193.008 168.234L195.265 179.451C197.435 190.225 202.361 241.99 164.741 245.63Z" fill="#E98862"></path>
<path d="M179.739 212.05C172.889 215.534 165.073 216.635 157.526 215.181C157.265 215.131 156.995 215.157 156.748 215.256C156.5 215.354 156.286 215.521 156.131 215.736C155.975 215.952 155.884 216.208 155.868 216.473C155.852 216.739 155.912 217.003 156.041 217.236C158.294 221.2 163.628 227.978 172.783 225.216C178.694 223.433 180.929 217.351 181.757 213.589C181.814 213.329 181.796 213.057 181.704 212.807C181.612 212.557 181.45 212.338 181.239 212.177C181.027 212.015 180.773 211.917 180.507 211.895C180.242 211.872 179.975 211.926 179.739 212.05V212.05Z" fill="white"></path>
<path d="M180.168 181.582C181.997 181.582 183.479 180.1 183.479 178.272C183.479 176.444 181.997 174.962 180.168 174.962C178.34 174.962 176.858 176.444 176.858 178.272C176.858 180.1 178.34 181.582 180.168 181.582Z" fill="#0C0C0C"></path>
<path d="M148.358 187.151C150.186 187.151 151.668 185.669 151.668 183.841C151.668 182.013 150.186 180.531 148.358 180.531C146.53 180.531 145.048 182.013 145.048 183.841C145.048 185.669 146.53 187.151 148.358 187.151Z" fill="#0C0C0C"></path>
<path opacity="0.1" d="M151.342 208.862C154.811 208.448 157.378 206.049 157.074 203.504C156.771 200.959 153.712 199.231 150.242 199.645C146.772 200.059 144.206 202.458 144.509 205.003C144.813 207.548 147.872 209.276 151.342 208.862Z" fill="#0C0C0C"></path>
<path opacity="0.1" d="M188 198.66C188.311 201.202 191.369 202.927 194.839 202.518C195.439 202.446 196.03 202.312 196.601 202.118C196.763 199.088 196.772 196.173 196.683 193.474C195.72 193.233 194.72 193.175 193.735 193.301C190.268 193.71 187.7 196.108 188 198.66Z" fill="#0C0C0C"></path>
<path opacity="0.5" d="M172.671 206.516C172.689 206.514 172.706 206.511 172.723 206.507C173.794 206.284 174.852 206.002 175.892 205.661C177.444 205.142 179.474 204.289 179.191 202.885C178.87 201.285 171.013 184.905 170.117 183.042C170.036 182.884 169.897 182.765 169.729 182.708C169.56 182.652 169.377 182.663 169.217 182.74C169.057 182.817 168.934 182.953 168.873 183.12C168.812 183.286 168.818 183.47 168.89 183.632C172.242 190.608 177.64 202.077 177.856 203.154C177.687 203.654 175.112 204.637 172.457 205.173C172.285 205.209 172.135 205.31 172.036 205.454C171.937 205.598 171.897 205.775 171.925 205.948C171.953 206.121 172.046 206.276 172.186 206.382C172.325 206.487 172.5 206.536 172.674 206.516H172.671Z" fill="#0C0C0C"></path>
<path d="M84.531 194.917L108.231 190.287C126.131 182.8 131.214 151.597 131.214 151.597C131.214 151.597 153.314 172.64 206.114 159.915C206.114 159.915 194.643 86.195 116.666 108.572C91.523 115.787 73.714 141.415 76.366 175.36C78.225 199.148 84.531 194.917 84.531 194.917Z" fill="#0A0A0A"></path>
<path d="M114.088 219.382C106.053 220.999 97.8103 213.714 96.1933 205.682C94.5763 197.65 100.193 191.906 108.232 190.289L113.455 194.839L120.995 217.993L114.088 219.382Z" fill="#E98862"></path>
<path d="M175.816 169.982C177.827 168.562 180.178 167.699 182.63 167.482C183.862 167.363 185.105 167.43 186.316 167.682C187.538 167.933 188.724 168.336 189.845 168.882L189.88 168.898C190.004 168.95 190.143 168.951 190.269 168.903C190.394 168.855 190.495 168.76 190.553 168.639C190.61 168.517 190.618 168.379 190.575 168.251C190.532 168.124 190.442 168.018 190.324 167.956C189.135 167.329 187.872 166.853 186.564 166.541C185.248 166.221 183.891 166.101 182.539 166.184C179.798 166.337 177.149 167.221 174.866 168.746C174.702 168.866 174.591 169.044 174.556 169.244C174.522 169.445 174.566 169.65 174.681 169.818C174.795 169.986 174.97 170.103 175.169 170.144C175.368 170.185 175.575 170.147 175.747 170.038L175.764 170.025L175.816 169.982Z" fill="#0C0C0C"></path>
<path d="M154.165 172.975C151.473 172.439 148.687 172.636 146.098 173.545C144.816 173.985 143.608 174.615 142.515 175.415C141.426 176.204 140.442 177.126 139.584 178.161C139.501 178.264 139.461 178.395 139.471 178.527C139.482 178.659 139.542 178.783 139.64 178.872C139.738 178.961 139.866 179.009 139.999 179.007C140.131 179.005 140.258 178.953 140.353 178.861L140.38 178.832C141.207 177.9 142.148 177.075 143.18 176.377C144.202 175.679 145.324 175.14 146.507 174.777C148.856 174.04 151.359 173.938 153.76 174.482L153.82 174.496C153.92 174.52 154.023 174.524 154.125 174.509C154.226 174.493 154.323 174.457 154.411 174.404C154.498 174.35 154.575 174.28 154.635 174.197C154.696 174.114 154.739 174.02 154.763 173.92C154.787 173.821 154.792 173.717 154.776 173.616C154.76 173.514 154.724 173.417 154.671 173.33C154.618 173.242 154.547 173.166 154.465 173.105C154.382 173.045 154.288 173.001 154.188 172.977L154.165 172.975Z" fill="#0C0C0C"></path>
<path d="M108.248 189.9C124.18 183.971 129.467 172.967 131.096 164.779C132.15 159.319 132.051 153.699 130.806 148.279L130.313 148.415C131.54 153.764 131.634 159.311 130.591 164.699C128.984 172.753 123.772 183.579 108.07 189.423L108.248 189.9Z" fill="#0C0C0C"></path>
<path d="M234.034 279.2L385.315 329.769L340.9 349.51L416.329 194.759L477.978 223.49L407.99 380.775C404.45 388.729 398.167 395.143 390.288 398.847C382.409 402.55 373.46 403.295 365.077 400.946L363.577 400.518L210 357.4L234.034 279.2Z" fill="#367CFF"></path>
<path d="M138.934 302.73C104.07 301.087 102.602 271.494 102.602 271.494C102.602 271.494 85.3272 272.61 73.8432 274.164C55.0432 276.708 42.6432 283.083 32.7692 292.953C23.5872 302.135 17.9973 312.069 23.9133 375.494C28.1963 421.417 31.0431 522.431 31.0431 522.431H237.643C237.643 522.431 252.479 376.499 254.237 355.831C257.594 316.367 267.077 307.655 247.864 287.331C233.93 272.589 197.964 271.504 183.478 271.506C183.241 271.5 186.415 304.968 138.934 302.73Z" fill="#367CFF"></path>
<path d="M31.0432 522.431L17.7822 569.828H248.999L237.642 522.431H31.0432Z" fill="#262626"></path>
<path d="M211.505 424.441L243.488 410.158C244.19 409.845 244.95 409.681 245.72 409.678C246.489 409.674 247.25 409.831 247.956 410.137C248.661 410.444 249.295 410.895 249.817 411.46C250.339 412.025 250.738 412.692 250.988 413.42C251.407 414.778 251.307 416.244 250.708 417.533C250.108 418.822 249.051 419.842 247.742 420.396L240.885 423.458L266.872 423.726C269.762 423.705 273.32 425.526 273.13 428.771C273.138 430.024 272.722 431.242 271.948 432.228C271.175 433.214 270.09 433.908 268.872 434.198C268.879 434.225 268.884 434.253 268.885 434.281C268.882 434.302 268.877 434.323 268.872 434.344L273.327 434.312C274.153 434.307 274.969 434.485 275.717 434.835C276.464 435.185 277.125 435.698 277.649 436.335C278.173 436.972 278.549 437.719 278.748 438.52C278.948 439.321 278.966 440.156 278.802 440.965C278.517 442.233 277.806 443.366 276.786 444.172C275.767 444.979 274.501 445.411 273.201 445.397L271.302 445.411C271.277 445.466 271.243 445.516 271.201 445.559C272.485 445.847 273.624 446.582 274.415 447.633C275.206 448.684 275.597 449.981 275.519 451.294C275.391 452.728 274.728 454.061 273.66 455.027C272.593 455.994 271.201 456.522 269.762 456.507L265.051 456.54C265.118 456.586 265.173 456.648 265.211 456.72C265.249 456.792 265.27 456.872 265.272 456.953C265.268 457.05 265.236 457.144 265.18 457.223C266.252 457.797 267.106 458.707 267.61 459.813C268.114 460.92 268.24 462.161 267.97 463.346C267.661 464.586 266.942 465.685 265.931 466.465C264.919 467.246 263.674 467.662 262.397 467.646L222.657 467.929C217.097 467.969 211.652 466.347 207.019 463.272C202.387 460.197 198.779 455.808 196.657 450.669V450.669C194.827 446.238 194.797 441.268 196.574 436.816C198.351 432.363 201.793 428.779 206.17 426.824L211.505 424.441Z" fill="#E98862"></path>
<g opacity="0.2">
<path opacity="0.2" d="M243.15 434.061C243.153 434.194 243.208 434.32 243.303 434.414C243.397 434.507 243.525 434.56 243.657 434.561L268.372 434.784C268.503 434.78 268.628 434.724 268.72 434.63C268.813 434.535 268.865 434.409 268.866 434.277C268.867 434.145 268.817 434.018 268.727 433.922C268.636 433.825 268.512 433.768 268.38 433.761L243.667 433.538C243.531 433.537 243.4 433.59 243.304 433.685C243.207 433.78 243.152 433.91 243.15 434.045V434.061Z" fill="#0C0C0C"></path>
</g>
<g opacity="0.2">
<path opacity="0.2" d="M242.751 444.958C242.755 445.091 242.809 445.217 242.904 445.311C242.998 445.404 243.126 445.457 243.259 445.458L270.84 445.706C270.907 445.707 270.973 445.694 271.036 445.669C271.098 445.644 271.155 445.607 271.203 445.56C271.251 445.512 271.289 445.456 271.315 445.395C271.341 445.333 271.355 445.266 271.355 445.199C271.352 445.065 271.298 444.937 271.204 444.841C271.11 444.746 270.983 444.689 270.848 444.684L243.268 444.435C243.132 444.434 243.001 444.487 242.905 444.582C242.808 444.677 242.753 444.806 242.751 444.942V444.958Z" fill="#0C0C0C"></path>
</g>
<g opacity="0.2">
<path opacity="0.2" d="M242.251 456.758C242.255 456.891 242.309 457.017 242.404 457.111C242.498 457.204 242.626 457.257 242.759 457.258L264.759 457.458C264.89 457.453 265.015 457.398 265.107 457.304C265.2 457.209 265.252 457.083 265.253 456.951C265.254 456.819 265.204 456.692 265.114 456.595C265.023 456.499 264.899 456.442 264.768 456.435L242.768 456.235C242.632 456.234 242.501 456.287 242.405 456.382C242.308 456.477 242.253 456.606 242.251 456.742V456.758Z" fill="#0C0C0C"></path>
</g>
<path d="M220.659 481.387L43.3402 521.7C37.4495 522.341 31.4905 521.608 25.9306 519.559C20.3706 517.51 15.3609 514.201 11.2948 509.891C7.22874 505.58 4.21688 500.387 2.49525 494.717C0.773626 489.047 0.389238 483.055 1.37221 477.212L21.6642 313.99C22.4998 309.024 24.3054 304.27 26.9779 300.002C29.6505 295.733 33.1375 292.033 37.2401 289.112C41.3428 286.191 45.9807 284.107 50.8888 282.978C55.7969 281.85 60.8792 281.699 65.8456 282.534C70.812 283.37 75.5653 285.176 79.8339 287.848C84.1025 290.521 87.8029 294.008 90.7238 298.111C93.6447 302.213 95.7288 306.851 96.8573 311.759C97.9859 316.667 98.1368 321.75 97.3012 326.716L87.5292 443.541L210.729 415.662L220.659 481.387Z" fill="#367CFF"></path>
<path d="M62.6003 448.129C62.4718 448.128 62.3482 448.079 62.2543 447.991C62.1604 447.904 62.1031 447.784 62.0937 447.656C62.0842 447.527 62.1233 447.4 62.2033 447.3C62.2833 447.199 62.3981 447.133 62.5251 447.113L87.2341 441.837C87.3005 441.826 87.3686 441.829 87.434 441.845C87.4995 441.86 87.5612 441.889 87.6154 441.929C87.6696 441.969 87.7152 442.019 87.7497 442.077C87.7842 442.135 87.8067 442.199 87.8161 442.266C87.8362 442.4 87.8022 442.537 87.7216 442.646C87.641 442.755 87.5203 442.828 87.3862 442.848L62.6772 448.123C62.6517 448.127 62.626 448.129 62.6003 448.129V448.129Z" fill="#0C0C0C"></path>
<path d="M48.66 522.431C48.5309 522.43 48.4071 522.38 48.3133 522.291C48.2195 522.202 48.1627 522.081 48.1544 521.952C48.146 521.823 48.1866 521.696 48.2682 521.596C48.3497 521.496 48.4662 521.43 48.5941 521.412L219.545 481.149L209.859 416.413L87.4 442.85C87.3207 442.86 87.2403 442.851 87.1649 442.825C87.0895 442.798 87.0212 442.755 86.9652 442.698C86.9098 442.64 86.8684 442.57 86.8448 442.494C86.8212 442.417 86.816 442.336 86.8292 442.257L93.6971 375.507C93.7075 375.44 93.7312 375.376 93.7667 375.319C93.8022 375.262 93.8487 375.212 93.9037 375.173C93.9587 375.134 94.0209 375.106 94.0868 375.092C94.1526 375.077 94.2209 375.076 94.2872 375.088C94.4208 375.111 94.5397 375.185 94.6183 375.296C94.6968 375.406 94.7285 375.543 94.7062 375.677L87.952 441.744L210.094 415.287C210.16 415.269 210.228 415.264 210.296 415.273C210.364 415.282 210.429 415.304 210.487 415.339C210.546 415.373 210.598 415.419 210.639 415.474C210.68 415.528 210.71 415.591 210.726 415.657L220.66 481.387C220.692 481.517 220.673 481.654 220.605 481.769C220.537 481.885 220.427 481.969 220.298 482.004L48.7281 522.427C48.7056 522.43 48.6827 522.431 48.66 522.431Z" fill="#0C0C0C"></path>
<path d="M253.764 370.2C253.743 370.202 253.722 370.202 253.7 370.2C253.634 370.192 253.569 370.17 253.511 370.137C253.452 370.104 253.401 370.06 253.36 370.007C253.319 369.954 253.288 369.893 253.271 369.828C253.253 369.763 253.248 369.696 253.256 369.629L256.546 342.961C256.553 342.894 256.573 342.829 256.606 342.769C256.639 342.71 256.683 342.658 256.736 342.617C256.789 342.575 256.851 342.545 256.916 342.527C256.981 342.51 257.049 342.506 257.116 342.516C257.183 342.524 257.247 342.546 257.306 342.579C257.364 342.612 257.415 342.656 257.457 342.709C257.498 342.763 257.528 342.823 257.546 342.888C257.564 342.953 257.569 343.02 257.56 343.087L254.27 369.755C254.255 369.878 254.195 369.991 254.101 370.073C254.008 370.155 253.888 370.2 253.764 370.2V370.2Z" fill="#0C0C0C"></path>
</svg>