<svg width="777" height="472" viewBox="0 0 777 472" fill="none" xmlns="http://www.w3.org/2000/svg">
<path d="M78.7529 448.714L76.2219 464.754C75.9479 466.491 75.0669 468.075 73.7355 469.224C72.4041 470.373 70.7085 471.013 68.95 471.03L4.47894 471.656C3.5525 471.665 2.6505 471.359 1.92125 470.787C1.19199 470.216 0.678892 469.413 0.466307 468.512C0.253722 467.61 0.354308 466.663 0.751524 465.826C1.14874 464.989 1.81893 464.312 2.65193 463.906L41.3579 445.049L78.7529 448.714Z" fill="#E98862"></path>
<path d="M154.168 366.961C154.168 366.961 153.732 461.574 222.2 470.328L286.66 411.333L326.624 331.622L177.039 348.122L154.168 366.961Z" fill="#262626"></path>
<path d="M152.325 361.808L152.125 361.861C152.125 361.861 151.454 357.851 152.325 361.808Z" fill="#333333"></path>
<path d="M416.284 87.119C416.277 87.078 416.238 87.051 416.218 87.019L417.041 85.819C417.611 85.0169 417.886 84.0425 417.821 83.0607C417.755 82.0789 417.352 81.1499 416.68 80.431C416.249 79.9889 415.726 79.6479 415.147 79.4326C414.569 79.2172 413.95 79.1329 413.335 79.1857C412.72 79.2385 412.125 79.4271 411.592 79.7379C411.058 80.0487 410.601 80.474 410.252 80.983L408.352 83.756C408.339 83.744 408.339 83.723 408.324 83.713C408.309 83.703 408.279 83.707 408.259 83.697C408.607 82.8197 408.647 81.8499 408.372 80.9469C408.097 80.0438 407.523 79.261 406.745 78.727C404.825 77.218 402.172 78.633 400.945 80.427L389.627 96.354L390.676 90.826C390.902 89.7534 390.712 88.6351 390.145 87.6969C389.578 86.7588 388.676 86.0708 387.622 85.772C387.072 85.6367 386.501 85.6148 385.942 85.7076C385.384 85.8005 384.85 86.0061 384.374 86.312C383.898 86.6179 383.489 87.0177 383.172 87.4869C382.855 87.9561 382.637 88.4849 382.532 89.041L376.806 119.225C376.134 122.766 376.869 126.429 378.855 129.437C380.841 132.445 383.921 134.559 387.442 135.332V135.332C391.525 136.228 395.782 135.884 399.668 134.344C403.555 132.804 406.892 130.139 409.254 126.69C409.254 126.69 417.8 85.724 416.284 87.119Z" fill="#E98862"></path>
<path d="M406.425 41.4401L409.866 41.7751C410.22 41.7915 410.567 41.8794 410.887 42.0334C411.206 42.1874 411.491 42.4044 411.725 42.6713C411.958 42.9383 412.135 43.2497 412.246 43.5868C412.356 43.9239 412.397 44.2798 412.366 44.6331L403.601 115.507C403.471 116.242 403.067 116.901 402.47 117.35C401.874 117.799 401.129 118.006 400.387 117.928L396.445 117.637L406.425 41.4401Z" fill="#292A2E"></path>
<path d="M397.078 117.712L389.778 117.16C389.452 117.153 389.13 117.079 388.834 116.944C388.537 116.808 388.271 116.612 388.053 116.37C387.835 116.127 387.669 115.842 387.565 115.533C387.461 115.224 387.422 114.896 387.45 114.571L396.211 43.081C396.329 42.4143 396.695 41.8171 397.236 41.41C397.777 41.003 398.452 40.8164 399.126 40.8881L406.426 41.4401C406.752 41.4471 407.073 41.5209 407.37 41.657C407.667 41.793 407.932 41.9884 408.151 42.2311C408.369 42.4738 408.535 42.7586 408.639 43.068C408.743 43.3774 408.782 43.7048 408.755 44.0301L399.994 115.519C399.876 116.186 399.51 116.784 398.968 117.191C398.427 117.598 397.751 117.784 397.078 117.712Z" fill="#292A2E"></path>
<path d="M396.333 116.239L389.867 115.708C389.643 115.703 389.422 115.653 389.218 115.559C389.014 115.466 388.832 115.332 388.682 115.165C388.532 114.999 388.418 114.803 388.346 114.591C388.275 114.378 388.248 114.153 388.267 113.93L396.955 43.73C397.036 43.2724 397.287 42.8625 397.658 42.583C398.029 42.3035 398.493 42.1752 398.955 42.224L405.335 42.762C405.559 42.7667 405.78 42.8173 405.983 42.9106C406.187 43.0039 406.37 43.138 406.52 43.3047C406.67 43.4713 406.784 43.6669 406.855 43.8793C406.927 44.0918 406.954 44.3167 406.935 44.54L398.335 114.74C398.253 115.197 398 115.606 397.629 115.884C397.257 116.162 396.794 116.289 396.333 116.239V116.239Z" fill="white"></path>
<path d="M403.719 45.119L400.889 44.9061C400.769 44.9033 400.65 44.876 400.541 44.8258C400.431 44.7756 400.334 44.7036 400.253 44.6141C400.173 44.5247 400.111 44.4197 400.073 44.3056C400.035 44.1916 400.02 44.071 400.03 43.951L400.297 41.774L405.06 42.134L404.793 44.3111C404.75 44.5569 404.615 44.7772 404.416 44.9273C404.216 45.0773 403.967 45.1459 403.719 45.119V45.119Z" fill="#292A2E"></path>
<path d="M391.663 94.72C392.114 93.9872 392.782 93.4125 393.574 93.0752C394.366 92.738 395.243 92.6547 396.084 92.8371C396.081 92.7852 396.091 92.7334 396.113 92.6862C396.134 92.6389 396.167 92.5977 396.208 92.5659C396.249 92.5341 396.297 92.5128 396.349 92.5038C396.4 92.4948 396.452 92.4983 396.502 92.5141L393.802 90.2141C392.993 89.5538 392.45 88.6229 392.274 87.5935C392.098 86.5641 392.3 85.5057 392.844 84.614C393.409 83.7519 394.275 83.1302 395.272 82.8694C396.27 82.6085 397.329 82.7271 398.244 83.202C398.244 83.16 398.271 83.124 398.281 83.083L397.173 82.138C396.412 81.5123 395.891 80.6428 395.698 79.6769C395.505 78.711 395.652 77.7081 396.114 76.838C396.414 76.2989 396.83 75.8331 397.333 75.4743C397.835 75.1155 398.41 74.8726 399.017 74.763C399.625 74.6535 400.249 74.6801 400.845 74.8409C401.44 75.0018 401.993 75.2928 402.463 75.693L405.02 77.874C405.029 77.859 405.02 77.839 405.035 77.825C405.05 77.811 405.077 77.808 405.094 77.793C404.528 77.0372 404.236 76.1116 404.266 75.168C404.295 74.2244 404.645 73.3189 405.257 72.6001C406.717 70.6421 409.647 71.3151 411.3 72.7251L416.163 77.571C416.913 78.3195 417.467 79.2417 417.774 80.2556C418.082 81.2696 418.135 82.3439 417.927 83.383C416.137 92.374 410.901 115.749 405.627 111.248L392.637 100.168C391.885 99.5021 391.38 98.602 391.203 97.6133C391.026 96.6246 391.188 95.6052 391.663 94.72V94.72Z" fill="#E98862"></path>
<path d="M366.051 116.724L346.951 220.051L298.141 144.825L260.851 188.633L338.623 294.863L339.283 295.479C343.287 299.121 348.153 301.683 353.421 302.924C358.689 304.166 364.186 304.046 369.395 302.575C374.604 301.104 379.353 298.332 383.194 294.519C387.035 290.705 389.842 285.977 391.351 280.779L423.387 125.92L366.051 116.724Z" fill="#367CFF"></path>
<path d="M344.308 230.214C344.255 230.214 344.202 230.207 344.151 230.193C344.001 230.151 343.875 230.052 343.798 229.917C343.722 229.782 343.702 229.623 343.743 229.473L346.392 219.895C346.412 219.821 346.447 219.752 346.494 219.691C346.542 219.63 346.6 219.58 346.667 219.542C346.734 219.504 346.808 219.479 346.884 219.47C346.96 219.46 347.037 219.466 347.111 219.487C347.186 219.507 347.255 219.542 347.315 219.589C347.376 219.636 347.427 219.695 347.465 219.762C347.503 219.828 347.527 219.902 347.536 219.978C347.546 220.055 347.54 220.132 347.52 220.206L344.872 229.784C344.838 229.908 344.764 230.017 344.663 230.094C344.561 230.172 344.436 230.214 344.308 230.214V230.214Z" fill="#0C0C0C"></path>
<path d="M138.526 52.2551C138.526 52.2551 135.454 79.7551 128.801 89.4871C109.646 117.499 103.02 149.679 120.154 167.412C137.288 185.145 251.393 190.485 261.78 151.924C270.525 119.46 255.064 115.236 252.474 88.0171C251.301 75.7001 247.719 49.8251 247.719 49.8251" fill="#0A0A0A"></path>
<path d="M241.584 132.5C241.384 132.514 246.53 168.521 204.575 173.887C175.531 177.606 159.113 149.347 158.457 149.487C161.407 148.199 166.269 145.987 167.625 145.17C172.759 142.07 176.691 138.17 176.35 129.121C176.15 123.908 169.45 98.4071 168.84 93.2211L214.757 94.0211C216.352 104.921 217.175 130.775 233.132 132.111C235.786 132.323 238.621 132.442 241.584 132.5Z" fill="#E98862"></path>
<path opacity="1" d="M221.513 123.85C220.371 121.775 219.459 119.58 218.795 117.306C217.231 112.127 216.238 106.792 215.834 101.397C206.663 102.021 197.5 100.061 189.388 95.738C189.188 98.916 187.402 112.992 189.229 115.599C192.685 120.528 205.528 127.126 221.513 123.85Z" fill="#0C0C0C"></path>
<path d="M209.864 120.041C192.134 120.96 169.609 112.876 165.928 89.156L162.608 67.756C158.928 44.035 168.408 22.873 190.738 19.408C213.072 15.943 232.75 32.582 236.43 56.308L237.9 65.784C239.312 74.877 241.5 118.4 209.864 120.041Z" fill="#E98862"></path>
<path opacity="1" d="M217.968 87.589H218.012C218.917 87.4419 219.813 87.2449 220.696 86.999C222.015 86.622 223.748 85.985 223.564 84.799C223.355 83.447 217.39 69.438 216.71 67.845C216.651 67.7059 216.538 67.5961 216.398 67.5397C216.258 67.4834 216.101 67.4851 215.961 67.5445C215.822 67.6039 215.713 67.7161 215.656 67.8565C215.6 67.9969 215.602 68.1539 215.661 68.293C218.205 74.259 222.296 84.063 222.436 84.973C222.275 85.388 220.082 86.112 217.836 86.461C217.691 86.4851 217.562 86.5638 217.474 86.6809C217.386 86.7979 217.346 86.9443 217.363 87.0898C217.38 87.2353 217.452 87.3687 217.564 87.4626C217.677 87.5564 217.821 87.6034 217.967 87.594L217.968 87.589Z" fill="#0C0C0C"></path>
<path opacity="1" d="M214.344 97.6571C217.98 97.3081 221.483 96.1091 224.57 94.1571C224.636 94.1194 224.694 94.0688 224.74 94.0084C224.786 93.948 224.82 93.8789 224.839 93.8053C224.858 93.7316 224.863 93.6549 224.852 93.5796C224.841 93.5043 224.815 93.4319 224.775 93.3668C224.736 93.3017 224.684 93.2452 224.622 93.2005C224.561 93.1558 224.491 93.1239 224.417 93.1067C224.342 93.0895 224.266 93.0873 224.191 93.1002C224.116 93.1132 224.044 93.141 223.98 93.1821C217.305 97.2221 210.789 97.6961 205.139 94.5511C205.025 94.484 204.907 94.4233 204.786 94.3691C204.647 94.3192 204.493 94.3252 204.359 94.386C204.224 94.4468 204.118 94.5575 204.063 94.6949C204.008 94.8323 204.009 94.9857 204.065 95.1226C204.121 95.2595 204.228 95.3694 204.363 95.4291C204.408 95.4491 204.482 95.4911 204.584 95.5481C207.555 97.2071 210.953 97.9415 214.344 97.6571Z" fill="#0C0C0C"></path>
<path d="M144.606 74.577L164.624 71.588C179.894 65.988 185.315 40.055 185.315 40.055C185.315 40.055 203.027 58.501 247.715 49.825C247.715 49.825 240.871 -12.328 174.747 3.48703C153.425 8.58703 137.555 29.377 138.501 57.897C139.168 77.883 144.606 74.577 144.606 74.577Z" fill="#0A0A0A"></path>
<path d="M168.437 96.167C161.649 97.22 155.021 90.812 153.968 84.025C152.915 77.238 157.836 72.641 164.624 71.588L168.824 75.588L174.269 95.257L168.437 96.167Z" fill="#E98862"></path>
<path d="M221.148 56.7C223.158 55.4945 225.455 54.852 227.798 54.84C228.952 54.8265 230.101 54.9866 231.207 55.315C232.303 55.6351 233.354 56.0924 234.335 56.676C234.455 56.7593 234.541 56.8838 234.577 57.0261C234.612 57.1683 234.593 57.3185 234.525 57.4483C234.457 57.5781 234.344 57.6785 234.207 57.7306C234.07 57.7827 233.919 57.7828 233.782 57.731L233.74 57.71C232.831 57.2246 231.865 56.8551 230.865 56.61C229.876 56.3635 228.855 56.2681 227.837 56.327C225.819 56.4293 223.864 57.0634 222.17 58.165L222.115 58.202C222.018 58.2732 221.907 58.324 221.79 58.3514C221.673 58.3788 221.551 58.3823 221.432 58.3616C221.314 58.3409 221.2 58.2964 221.099 58.2309C220.998 58.1654 220.911 58.0802 220.844 57.9803C220.777 57.8804 220.73 57.768 220.707 57.6497C220.685 57.5315 220.686 57.4098 220.711 57.292C220.736 57.1743 220.785 57.0628 220.855 56.9644C220.924 56.8659 221.013 56.7824 221.115 56.719L221.148 56.7Z" fill="#0C0C0C"></path>
<path d="M203.265 60.291C201.319 59.7459 199.264 59.7249 197.308 60.23C196.319 60.4781 195.373 60.8742 194.503 61.405C193.621 61.9367 192.809 62.577 192.086 63.311L192.054 63.342C191.939 63.4329 191.794 63.4784 191.648 63.47C191.501 63.4615 191.363 63.3996 191.259 63.296C191.155 63.1924 191.092 63.0543 191.083 62.9078C191.074 62.7613 191.119 62.6166 191.21 62.501C191.973 61.6517 192.839 60.9015 193.789 60.268C194.747 59.6261 195.795 59.1313 196.9 58.8C199.139 58.1123 201.522 58.0391 203.8 58.588C203.925 58.6056 204.045 58.6492 204.152 58.716C204.258 58.7829 204.35 58.8714 204.421 58.976C204.491 59.0806 204.539 59.1988 204.561 59.323C204.583 59.4472 204.578 59.5746 204.548 59.697C204.517 59.8193 204.461 59.9339 204.384 60.0333C204.306 60.1327 204.209 60.2147 204.097 60.2739C203.986 60.3331 203.863 60.3683 203.737 60.3771C203.612 60.3859 203.485 60.3682 203.367 60.325L203.33 60.315L203.265 60.291Z" fill="#0C0C0C"></path>
<path opacity="1" d="M214.936 103.035C215.595 102.982 216.248 102.874 216.888 102.71C216.961 102.692 217.029 102.659 217.089 102.615C217.149 102.57 217.2 102.514 217.238 102.449C217.277 102.385 217.302 102.314 217.313 102.24C217.324 102.166 217.32 102.09 217.301 102.018C217.283 101.945 217.251 101.877 217.206 101.817C217.161 101.756 217.105 101.706 217.041 101.667C216.977 101.629 216.905 101.604 216.831 101.593C216.757 101.582 216.682 101.586 216.609 101.604C212.757 102.575 210.636 101.049 210.547 100.983C210.426 100.899 210.276 100.865 210.131 100.888C209.985 100.912 209.854 100.991 209.765 101.109C209.676 101.227 209.636 101.375 209.654 101.521C209.672 101.668 209.746 101.802 209.861 101.895C211.37 102.849 213.163 103.252 214.936 103.035V103.035Z" fill="#0C0C0C"></path>
<path d="M164.675 71.338L164.496 70.78C190.017 62.562 184.661 37.623 184.604 37.373L185.174 37.243C185.233 37.5 190.7 62.958 164.675 71.338Z" fill="#0C0C0C"></path>
<path opacity="0.1" d="M200.021 88.7333C202.942 88.5166 205.18 86.6041 205.021 84.4616C204.863 82.3191 202.366 80.7579 199.445 80.9746C196.524 81.1913 194.286 83.1038 194.445 85.2463C194.603 87.3888 197.1 88.95 200.021 88.7333Z" fill="#0C0C0C"></path>
<path opacity="0.1" d="M231.1 81.586C231.265 83.726 233.761 85.286 236.682 85.072C237.187 85.0345 237.686 84.9446 238.172 84.804C238.42 82.272 238.538 79.832 238.565 77.569C237.767 77.3311 236.932 77.2446 236.102 77.314C233.181 77.527 230.943 79.438 231.1 81.586Z" fill="#0C0C0C"></path>
<path d="M231.092 67.494C232.63 67.494 233.876 66.2476 233.876 64.71C233.876 63.1725 232.63 61.926 231.092 61.926C229.554 61.926 228.308 63.1725 228.308 64.71C228.308 66.2476 229.554 67.494 231.092 67.494Z" fill="#0C0C0C"></path>
<path d="M203.534 70.277C205.072 70.277 206.318 69.0305 206.318 67.493C206.318 65.9554 205.072 64.709 203.534 64.709C201.996 64.709 200.75 65.9554 200.75 67.493C200.75 69.0305 201.996 70.277 203.534 70.277Z" fill="#0C0C0C"></path>
<path d="M308.967 200.285C310.799 215.842 324.016 312.532 326.624 331.622L154.168 366.961C149.713 350.175 130.118 276.796 119.617 244.336C109.595 213.362 100.124 197.604 102.552 182.571C105.385 165.023 128.552 157.997 143.569 152.742C152.737 149.533 166.731 145.712 166.731 145.712C166.731 145.712 172.909 169.757 201.818 165.241C241.172 159.093 232.937 132.141 233.131 132.105C239.445 130.811 270.944 128.671 280.84 132.093C307.806 141.406 305.089 167.317 308.967 200.285Z" fill="#367CFF"></path>
<path d="M310.847 210.311L309.689 210.48L318.451 270.525L319.609 270.357L310.847 210.311Z" fill="#0C0C0C"></path>
<path d="M87.82 458.856L31.429 443.156C57.518 349.41 99.871 195.228 102.457 180.583C102.242 181.969 102.149 183.371 102.179 184.773L160.708 183.945C160.79 189.711 160.839 193.191 123.808 328.47C106.026 393.424 88 458.208 87.82 458.856Z" fill="#367CFF"></path>
<path d="M145.325 240.296L133.504 293.541L134.647 293.795L146.468 240.549L145.325 240.296Z" fill="#0C0C0C"></path>
<path d="M270.966 347.4C270.966 347.4 424.738 267.958 467.332 253.265C478.366 249.459 498.526 245.954 515.808 256.059C567.36 286.2 703.5 408.936 703.5 408.936L670.429 458.353L490.585 329.559C490.585 329.559 404.414 391.034 326.624 418.073L248.1 408.8L270.966 347.4Z" fill="#262626"></path>
<path d="M723.712 423.231C723.712 423.231 751.254 418.755 753.536 393.158C755.818 367.561 776.082 373.723 776.082 373.723L773.194 471.713L724.237 470.27L723.712 423.231Z" fill="#367CFF"></path>
<path d="M222.2 470.328C222.2 470.328 213.977 469.778 232.65 470.393C302.303 472.688 739.678 471.541 739.678 471.541L739.899 405.931L222.347 369.209L222.2 470.328Z" fill="#262626"></path>
<path d="M408.246 382.765C408.221 382.766 408.197 382.766 408.172 382.765L357.16 376.335C357.084 376.325 357.01 376.301 356.943 376.263C356.876 376.225 356.817 376.174 356.77 376.113C356.723 376.053 356.688 375.983 356.668 375.909C356.648 375.835 356.642 375.757 356.652 375.681C356.66 375.604 356.684 375.53 356.722 375.462C356.759 375.395 356.81 375.336 356.871 375.288C356.932 375.241 357.002 375.206 357.077 375.187C357.151 375.167 357.229 375.162 357.306 375.173L408.319 381.603C408.467 381.62 408.604 381.694 408.7 381.809C408.796 381.924 408.844 382.071 408.835 382.221C408.825 382.37 408.759 382.51 408.649 382.612C408.54 382.714 408.395 382.77 408.246 382.769V382.765Z" fill="white"></path>
<path d="M699.023 403.167C699.009 403.168 698.995 403.168 698.981 403.167L576.411 394.483C576.256 394.472 576.112 394.4 576.01 394.283C575.908 394.166 575.857 394.013 575.868 393.858C575.879 393.703 575.951 393.559 576.068 393.457C576.185 393.355 576.338 393.304 576.493 393.315L699.064 402C699.214 402.012 699.354 402.082 699.454 402.195C699.554 402.307 699.607 402.454 699.602 402.605C699.596 402.755 699.533 402.898 699.426 403.003C699.318 403.109 699.174 403.168 699.023 403.17V403.167Z" fill="white"></path>
</svg>