<svg width="396" height="722" viewBox="0 0 396 722" fill="none" xmlns="http://www.w3.org/2000/svg">
<path d="M252.779 364.406C210.202 364.406 175.686 376.022 175.686 390.35V421.237H329.871V390.35C329.871 376.022 295.356 364.406 252.779 364.406Z" fill="#367CFF"></path>
<path opacity="0.49" d="M252.779 364.406C210.202 364.406 175.686 376.022 175.686 390.35V421.237H329.871V390.35C329.871 376.022 295.356 364.406 252.779 364.406Z" fill="white"></path>
<path opacity="0.49" d="M308.87 390.354V421.235H175.685V390.354C175.685 377.22 204.669 366.369 242.277 364.654C279.886 366.369 308.87 377.22 308.87 390.354Z" fill="white"></path>
<path d="M329.871 721.35H332.459L329.871 418.497L327.306 421.084L329.135 632.636L237.801 634.188L235.958 421.063L233.393 421.084L235.236 634.232L180.101 635.169L178.25 421.063L175.685 418.519L178.272 721.341L180.815 721.329L180.123 637.735L235.258 636.798L235.958 721.35L238.523 721.329L237.823 636.754L329.157 635.202L329.871 721.35Z" fill="#292A2E"></path>
<path d="M94.3409 676C94.3409 676 89.756 699.766 67.504 701.09C45.252 702.414 50.0779 720.141 50.0779 720.141H135.111V677.657L94.3409 676Z" fill="#367CFF"></path>
<path d="M142.856 604.517C142.856 604.517 149.233 627.866 129.851 638.877C110.469 649.888 122.623 663.664 122.623 663.664L198.923 626.129L180.169 588.008L142.856 604.517Z" fill="#367CFF"></path>
<path d="M134.784 619.949L77.2892 403.023C72.9262 379.058 79.4892 368.671 89.6112 358.579C107.385 340.851 181.034 303.117 181.034 303.117L269.39 302.876C292.818 302.876 315.85 325.976 315.85 349.406C315.85 372.836 292.033 392.706 268.605 392.706L159.805 403.564L189.298 602.189L134.784 619.949Z" fill="#262626"></path>
<path d="M189.295 602.185L177.684 523.989L118.861 559.873L134.784 619.949L189.295 602.185Z" fill="#0C0C0C"></path>
<path d="M202.628 347.015C202.628 347.015 165.486 355.293 128.7 392.079C106.4 414.379 108.226 454.743 111.572 532.37L148.107 478.405L188.18 406.132L202.628 347.015Z" fill="#0C0C0C"></path>
<path d="M331.232 302.85L271.227 302.567L271.204 303.357H253.035C253.035 303.357 207.524 345.239 170.88 371.629C144.227 390.829 127.968 409.129 126.561 429.071C123.131 477.691 84.4482 685.054 84.4482 685.054L142.664 693.869L193.749 446.055C193.749 446.055 273.636 409.229 292.114 396.412C309.514 384.344 321.803 379.679 327.561 366.512C337.505 343.762 331.232 302.85 331.232 302.85Z" fill="#262626"></path>
<path d="M299.7 45.2411C299.7 45.2411 301.231 68.2232 306.4 76.5612C321.285 100.566 325.6 127.57 310.691 141.678C295.782 155.786 200.707 155.978 193.505 123.532C187.441 96.2131 200.454 93.2761 203.62 70.7391C205.053 60.5391 208.994 39.1602 208.994 39.1602" fill="#0A0A0A"></path>
<path d="M218.111 118.775C218.276 118.753 220.097 148.975 255.203 146.338C279.503 144.517 288.173 118.732 288.73 118.732C286.109 118.175 281.697 117.365 280.53 116.744C276.703 114.688 271.968 112.544 270.73 105.116C270.019 100.832 271.225 78.916 270.854 74.585L233.548 82.911C234.069 92.065 237.717 113.284 224.93 117.04C222.809 117.661 220.518 118.232 218.111 118.775Z" fill="#E98862"></path>
<path opacity="0.5" d="M233.032 108.368C233.616 106.485 233.992 104.543 234.154 102.577C234.564 98.0927 234.483 93.5767 233.91 89.1101C241.493 88.087 248.636 84.9575 254.529 80.0771C255.222 82.6351 259.029 93.8141 257.976 96.2451C255.983 100.841 246.613 108.368 233.032 108.368Z" fill="#0C0C0C"></path>
<path d="M237.856 98.9521C252.564 100.376 271.595 94.4921 275.537 74.9051L279.094 57.2322C283.037 37.6442 275.945 19.6951 257.503 15.9841C239.061 12.2731 222.081 25.3771 218.138 44.9641L216.564 52.7881C215.05 60.3001 211.613 96.4131 237.856 98.9521Z" fill="#E98862"></path>
<path d="M227.394 75.5279C232.173 77.9575 237.625 78.726 242.889 77.712C243.072 77.6776 243.26 77.6958 243.432 77.7645C243.604 77.8331 243.753 77.9493 243.862 78.0996C243.971 78.2499 244.034 78.428 244.046 78.6131C244.057 78.7982 244.015 78.9827 243.925 79.145C242.354 81.91 238.633 86.639 232.247 84.712C228.123 83.468 226.564 79.2259 225.986 76.6009C225.946 76.4192 225.959 76.23 226.023 76.0554C226.087 75.8808 226.2 75.7281 226.348 75.6153C226.496 75.5026 226.673 75.4344 226.858 75.4189C227.044 75.4034 227.23 75.4413 227.394 75.5279Z" fill="white"></path>
<path d="M227.095 54.2743C228.37 54.2743 229.404 53.2404 229.404 51.9652C229.404 50.69 228.37 49.6562 227.095 49.6562C225.82 49.6562 224.786 50.69 224.786 51.9652C224.786 53.2404 225.82 54.2743 227.095 54.2743Z" fill="#0C0C0C"></path>
<path d="M249.285 58.158C250.56 58.158 251.594 57.1242 251.594 55.849C251.594 54.5738 250.56 53.54 249.285 53.54C248.01 53.54 246.976 54.5738 246.976 55.849C246.976 57.1242 248.01 58.158 249.285 58.158Z" fill="#0C0C0C"></path>
<path opacity="0.1" d="M251.942 70.5814C252.154 68.8057 250.364 67.1318 247.943 66.843C245.522 66.5541 243.388 67.7598 243.177 69.5355C242.965 71.3112 244.755 72.9846 247.176 73.2734C249.596 73.5622 251.731 72.3571 251.942 70.5814Z" fill="#0C0C0C"></path>
<path opacity="0.1" d="M221.629 66.1871C221.412 67.9601 219.279 69.1641 216.858 68.8781C216.439 68.8286 216.027 68.735 215.628 68.5991C215.516 66.4861 215.509 64.4521 215.571 62.5691C216.243 62.401 216.941 62.3603 217.628 62.4491C220.049 62.7341 221.839 64.4071 221.629 66.1871Z" fill="#0C0C0C"></path>
<path opacity="0.5" d="M232.325 71.6673L232.288 71.6613C231.541 71.5056 230.804 71.3087 230.079 71.0713C228.996 70.7093 227.579 70.1143 227.779 69.1343C228.003 68.0183 233.479 56.5923 234.108 55.2933C234.134 55.2351 234.171 55.1827 234.217 55.1392C234.264 55.0957 234.318 55.062 234.378 55.04C234.438 55.018 234.501 55.0083 234.565 55.0113C234.628 55.0143 234.691 55.03 234.748 55.0575C234.805 55.0851 234.856 55.1237 234.898 55.1714C234.941 55.2191 234.973 55.2748 234.993 55.3351C235.013 55.3955 235.021 55.4592 235.016 55.5226C235.011 55.586 234.993 55.6478 234.964 55.7043C232.626 60.5703 228.864 68.5703 228.71 69.3223C228.828 69.6723 230.624 70.3563 232.479 70.7303C232.599 70.755 232.704 70.8251 232.774 70.9258C232.843 71.0266 232.872 71.1502 232.852 71.271C232.833 71.3919 232.767 71.5006 232.669 71.5744C232.572 71.6482 232.45 71.6814 232.328 71.6673H232.325Z" fill="#0C0C0C"></path>
<path d="M293.809 63.5761L277.276 60.346C264.787 55.123 261.243 33.3571 261.243 33.3571C261.243 33.3571 245.83 48.0361 208.991 39.1571C208.991 39.1571 216.991 -12.269 271.391 3.34103C288.93 8.37403 301.353 26.2511 299.506 49.9301C298.208 66.5271 293.809 63.5761 293.809 63.5761Z" fill="#0A0A0A"></path>
<path d="M273.191 80.6422C278.791 81.7702 284.545 76.6882 285.673 71.0842C286.801 65.4802 282.88 61.4742 277.273 60.3462L273.629 63.5203L268.369 79.6722L273.191 80.6422Z" fill="#E98862"></path>
<path d="M230.131 46.1821C228.728 45.1908 227.089 44.5884 225.378 44.4361C224.518 44.3533 223.651 44.4011 222.806 44.5781C221.954 44.7519 221.128 45.0318 220.345 45.4111L220.32 45.4221C220.233 45.463 220.133 45.4677 220.042 45.4351C219.952 45.4025 219.878 45.3352 219.837 45.2481C219.796 45.161 219.791 45.0611 219.824 44.9705C219.856 44.8799 219.924 44.806 220.011 44.7651C220.84 44.3276 221.721 43.996 222.633 43.778C223.551 43.5548 224.498 43.471 225.442 43.5291C227.353 43.6361 229.201 44.2532 230.793 45.3161C230.905 45.4002 230.981 45.5243 231.004 45.6628C231.027 45.8012 230.996 45.9433 230.917 46.0593C230.838 46.1753 230.717 46.2564 230.58 46.2856C230.443 46.3148 230.3 46.2898 230.18 46.216L230.167 46.2071L230.131 46.1821Z" fill="#0C0C0C"></path>
<path d="M245.234 48.2692C247.112 47.8968 249.055 48.0348 250.861 48.6691C251.755 48.9764 252.598 49.4164 253.361 49.9741C254.121 50.5241 254.808 51.1679 255.406 51.8901C255.467 51.9618 255.498 52.0543 255.492 52.1482C255.486 52.2421 255.444 52.3299 255.374 52.3933C255.305 52.4567 255.213 52.4907 255.119 52.488C255.025 52.4854 254.936 52.4463 254.87 52.3792L254.851 52.3591C254.274 51.7085 253.617 51.133 252.896 50.6461C252.183 50.1601 251.401 49.7842 250.575 49.5311C248.937 49.0167 247.191 48.9456 245.515 49.3251L245.474 49.3351C245.405 49.352 245.332 49.355 245.261 49.344C245.191 49.333 245.123 49.308 245.062 49.2708C245.001 49.2335 244.947 49.1846 244.905 49.1267C244.863 49.0689 244.832 49.0032 244.816 48.9336C244.799 48.864 244.796 48.7918 244.807 48.7211C244.818 48.6503 244.843 48.5824 244.88 48.5212C244.917 48.4601 244.966 48.4069 245.024 48.3646C245.082 48.3224 245.147 48.292 245.217 48.2751L245.234 48.2692Z" fill="#0C0C0C"></path>
<path d="M277.265 60.075C266.15 55.939 262.465 48.263 261.326 42.551C260.591 38.7423 260.659 34.8219 261.526 31.041L261.87 31.135C261.015 34.8669 260.949 38.7361 261.676 42.495C262.798 48.113 266.433 55.665 277.387 59.741L277.265 60.075Z" fill="#0C0C0C"></path>
<path d="M170.6 188.44C171.752 201.978 179.923 286.44 181.031 303.117H331.163C332.026 288.077 335.899 222.311 339.17 192.901C342.293 164.835 346.67 152.064 343.07 143.342C336.727 127.96 316.537 121.091 302.864 119.242C294.515 118.112 281.964 117.302 281.964 117.302C281.964 117.302 280.901 138.81 255.549 140.002C221.038 141.63 223.342 117.302 223.171 117.302C217.581 117.302 187.148 121.368 179.539 126.328C168.791 133.328 165.614 142.88 165.489 151.65C165.345 161.746 169.294 173.086 170.6 188.44Z" fill="#367CFF"></path>
<path d="M38.366 116.028C38.1194 115.543 37.7766 115.113 37.3584 114.765C36.9402 114.417 36.4551 114.157 35.9333 114.003C35.4116 113.848 34.8639 113.801 34.3235 113.865C33.783 113.929 33.2612 114.103 32.79 114.375C31.8965 114.934 31.2484 115.811 30.9768 116.829C30.7052 117.847 30.8303 118.931 31.3269 119.86L33.7781 124.683L19.0559 113.015C17.4409 111.689 14.6121 111.095 13.2451 113.003C12.6711 113.703 12.3512 114.577 12.3381 115.482C12.3251 116.387 12.6195 117.27 13.1731 117.986C13.1553 117.999 13.139 118.013 13.125 118.03C13.115 118.043 13.112 118.058 13.103 118.071L10.614 116.027C10.1553 115.651 9.61886 115.381 9.04321 115.237C8.46756 115.093 7.86707 115.078 7.28515 115.194C6.70324 115.31 6.15425 115.554 5.67798 115.908C5.20171 116.262 4.81004 116.717 4.531 117.241C4.10258 118.085 3.97926 119.051 4.18213 119.976C4.385 120.9 4.9016 121.726 5.64404 122.313L6.70288 123.183C6.69163 123.226 6.68847 123.272 6.69311 123.316C5.85015 122.898 4.88666 122.79 3.97217 123.012C3.05767 123.234 2.25071 123.771 1.69311 124.529C1.0986 125.399 0.856761 126.463 1.0166 127.505C1.17644 128.547 1.72587 129.489 2.55395 130.141L5.15405 132.279C5.09532 132.275 5.0364 132.285 4.98218 132.308C4.92795 132.331 4.87993 132.366 4.84204 132.411C4.7998 132.467 4.77476 132.534 4.77002 132.604C3.93022 132.444 3.06111 132.556 2.28979 132.925C1.51848 133.294 0.885297 133.9 0.482908 134.654C0.0546374 135.498 -0.0684013 136.464 0.134276 137.388C0.336952 138.312 0.852929 139.138 1.59497 139.725L23.7949 157.958C26.9009 160.508 30.6977 162.073 34.6987 162.452C38.6997 162.831 42.7226 162.006 46.252 160.084L57.615 153.894L38.366 116.028Z" fill="#E98862"></path>
<g opacity="0.2">
<path opacity="0.2" d="M27.6852 129.611C27.6234 129.685 27.5349 129.732 27.4389 129.742C27.3429 129.752 27.2467 129.724 27.1711 129.664L13.1843 118.549C13.1076 118.488 13.0584 118.399 13.0473 118.302C13.0362 118.205 13.0642 118.107 13.1252 118.03C13.1862 117.954 13.2752 117.904 13.3725 117.893C13.4698 117.882 13.5676 117.91 13.6442 117.971L27.6313 129.085C27.6693 129.115 27.7008 129.153 27.7243 129.195C27.7478 129.238 27.7628 129.284 27.7682 129.332C27.7737 129.381 27.7697 129.429 27.7563 129.476C27.7429 129.523 27.7204 129.566 27.6901 129.604L27.6852 129.611Z" fill="#0C0C0C"></path>
</g>
<g opacity="0.2">
<path opacity="0.2" d="M22.9529 135.915C22.8911 135.989 22.8028 136.036 22.7068 136.046C22.6108 136.056 22.5146 136.028 22.439 135.968L6.83008 123.568C6.79202 123.538 6.7602 123.501 6.73658 123.458C6.71295 123.416 6.69796 123.369 6.69239 123.321C6.68681 123.273 6.69078 123.224 6.70411 123.177C6.71743 123.131 6.73983 123.087 6.77002 123.049C6.83277 122.975 6.92144 122.927 7.01807 122.916C7.1147 122.905 7.21202 122.931 7.29004 122.989L22.8989 135.389C22.937 135.419 22.9688 135.457 22.9924 135.499C23.0161 135.541 23.0311 135.588 23.0366 135.636C23.0422 135.685 23.0382 135.733 23.0249 135.78C23.0116 135.827 22.9892 135.87 22.959 135.908L22.9529 135.915Z" fill="#0C0C0C"></path>
</g>
<g opacity="0.2">
<path opacity="0.2" d="M17.8681 142.772C17.8063 142.846 17.718 142.893 17.622 142.903C17.526 142.913 17.4298 142.885 17.3542 142.825L4.90227 132.931C4.86426 132.901 4.83255 132.863 4.80901 132.821C4.78547 132.778 4.77055 132.732 4.76507 132.683C4.75959 132.635 4.76361 132.586 4.77703 132.539C4.79045 132.493 4.81292 132.449 4.84319 132.411C4.87346 132.373 4.91078 132.341 4.9533 132.318C4.99581 132.294 5.04271 132.279 5.09099 132.274C5.13928 132.268 5.18809 132.272 5.23479 132.286C5.2815 132.299 5.32519 132.322 5.36321 132.352L17.8141 142.246C17.8521 142.276 17.8839 142.314 17.9074 142.356C17.9309 142.398 17.9459 142.445 17.9513 142.493C17.9568 142.542 17.9528 142.59 17.9394 142.637C17.926 142.684 17.9035 142.727 17.8732 142.765L17.8681 142.772Z" fill="#0C0C0C"></path>
</g>
<path d="M250.988 334.538C250.458 334.663 249.959 334.894 249.522 335.218C249.084 335.541 248.717 335.951 248.443 336.421C248.169 336.891 247.994 337.412 247.928 337.953C247.862 338.493 247.906 339.041 248.059 339.563C248.39 340.564 249.088 341.402 250.013 341.907C250.938 342.412 252.02 342.548 253.041 342.286L258.308 341.049L243.48 352.583C241.809 353.836 240.56 356.443 242.09 358.225C242.634 358.949 243.407 359.467 244.283 359.694C245.159 359.922 246.087 359.845 246.914 359.477C246.922 359.497 246.932 359.517 246.945 359.534C246.956 359.545 246.968 359.556 246.98 359.565L244.403 361.498C243.928 361.854 243.538 362.312 243.262 362.837C242.985 363.362 242.828 363.943 242.803 364.536C242.778 365.129 242.885 365.72 243.116 366.267C243.347 366.814 243.697 367.303 244.14 367.698C244.858 368.314 245.767 368.663 246.713 368.686C247.659 368.708 248.584 368.403 249.33 367.821L250.43 366.998C250.47 367.019 250.513 367.034 250.557 367.04C249.95 367.76 249.616 368.67 249.615 369.612C249.613 370.553 249.943 371.465 250.548 372.187C251.252 372.972 252.227 373.46 253.277 373.553C254.327 373.646 255.373 373.336 256.204 372.687L258.904 370.665C258.886 370.721 258.881 370.781 258.891 370.839C258.9 370.897 258.923 370.952 258.958 370.999C259.002 371.053 259.061 371.094 259.128 371.115C258.773 371.893 258.676 372.764 258.851 373.601C259.026 374.437 259.465 375.196 260.102 375.766C260.82 376.382 261.729 376.731 262.675 376.753C263.621 376.775 264.546 376.47 265.292 375.888L288.271 358.648C291.486 356.236 293.907 352.919 295.224 349.122C296.541 345.325 296.694 341.222 295.664 337.337L292.347 324.83L250.988 334.538Z" fill="#E98862"></path>
<g opacity="0.2">
<path opacity="0.2" d="M261.649 348.137C261.706 348.215 261.731 348.312 261.718 348.407C261.705 348.503 261.655 348.59 261.579 348.649L247.463 359.6C247.385 359.654 247.289 359.677 247.195 359.663C247.101 359.648 247.017 359.599 246.958 359.524C246.9 359.449 246.873 359.354 246.883 359.26C246.892 359.165 246.938 359.078 247.01 359.016L261.126 348.065C261.164 348.035 261.208 348.013 261.255 348.001C261.302 347.988 261.35 347.984 261.398 347.99C261.446 347.996 261.493 348.012 261.535 348.036C261.577 348.06 261.614 348.092 261.644 348.13L261.649 348.137Z" fill="#0C0C0C"></path>
</g>
<g opacity="0.2">
<path opacity="0.2" d="M266.651 354.229C266.708 354.307 266.733 354.404 266.72 354.499C266.706 354.595 266.656 354.682 266.58 354.741L250.827 366.962C250.789 366.992 250.745 367.014 250.698 367.026C250.652 367.039 250.603 367.043 250.555 367.037C250.507 367.031 250.46 367.015 250.418 366.991C250.376 366.967 250.339 366.935 250.309 366.897C250.252 366.818 250.227 366.721 250.239 366.625C250.251 366.528 250.299 366.44 250.374 366.378L266.127 354.157C266.205 354.097 266.303 354.07 266.4 354.082C266.497 354.095 266.586 354.145 266.646 354.222L266.651 354.229Z" fill="#0C0C0C"></path>
</g>
<g opacity="0.2">
<path opacity="0.2" d="M272.106 360.8C272.163 360.878 272.188 360.975 272.175 361.07C272.161 361.166 272.111 361.253 272.035 361.312L259.47 371.061C259.392 371.118 259.295 371.143 259.2 371.129C259.105 371.116 259.018 371.066 258.959 370.99C258.9 370.914 258.872 370.818 258.883 370.722C258.894 370.626 258.942 370.538 259.016 370.477L271.582 360.728C271.659 360.668 271.758 360.641 271.855 360.654C271.952 360.666 272.041 360.716 272.101 360.793L272.106 360.8Z" fill="#0C0C0C"></path>
</g>
<path d="M392.822 246.872L392.54 246.289L342.6 143.055L292.566 167.255L333.918 252.744L262.554 324.344L297.003 360.344L386.732 278.466C391.008 274.554 393.91 269.368 395.007 263.677C396.104 257.986 395.338 252.093 392.822 246.872V246.872Z" fill="#367CFF"></path>
<path d="M283.716 303.545C283.631 303.545 283.549 303.519 283.478 303.472C283.408 303.425 283.353 303.358 283.321 303.279C283.289 303.201 283.281 303.115 283.298 303.032C283.314 302.949 283.356 302.873 283.416 302.813L334.255 252.66L296.462 176.86C296.435 176.81 296.419 176.755 296.414 176.698C296.409 176.641 296.415 176.584 296.432 176.53C296.45 176.475 296.478 176.425 296.515 176.382C296.552 176.339 296.597 176.303 296.648 176.278C296.699 176.252 296.755 176.237 296.812 176.234C296.869 176.23 296.926 176.238 296.98 176.257C297.034 176.275 297.083 176.305 297.125 176.343C297.168 176.381 297.202 176.427 297.226 176.479L335.159 252.558C335.199 252.638 335.213 252.73 335.198 252.818C335.183 252.907 335.141 252.989 335.077 253.052L284.016 303.422C283.976 303.461 283.93 303.492 283.878 303.513C283.827 303.535 283.771 303.545 283.716 303.545V303.545Z" fill="#0C0C0C"></path>
<path d="M175.778 128.918L105.924 193.376L54.5068 129.11L20.2197 163.594L77.6377 243.164C82.8027 253.487 93.9239 259.735 105.35 258.096C109.775 257.462 113.972 255.737 117.565 253.076L118.865 252.119L212.573 173.699L175.778 128.918Z" fill="#367CFF"></path>
<path d="M172.621 207.156C172.517 207.156 172.417 207.119 172.339 207.05C172.261 206.982 172.211 206.888 172.197 206.785L168.951 182.414C168.944 182.358 168.947 182.302 168.961 182.247C168.976 182.193 169.001 182.142 169.035 182.097C169.069 182.053 169.112 182.015 169.161 181.987C169.209 181.959 169.263 181.941 169.319 181.933C169.431 181.92 169.544 181.951 169.634 182.019C169.723 182.088 169.782 182.189 169.799 182.3L173.045 206.672C173.06 206.785 173.03 206.898 172.961 206.988C172.892 207.079 172.791 207.138 172.678 207.153L172.621 207.156Z" fill="#0C0C0C"></path>
<path d="M114.549 206.342C114.472 206.342 114.397 206.322 114.331 206.283C114.265 206.244 114.211 206.188 114.174 206.121L105.55 193.582C105.52 193.533 105.501 193.478 105.493 193.421C105.484 193.364 105.488 193.306 105.503 193.25C105.518 193.194 105.543 193.142 105.579 193.097C105.615 193.051 105.659 193.014 105.709 192.986C105.76 192.958 105.816 192.941 105.873 192.935C105.93 192.929 105.988 192.935 106.043 192.952C106.098 192.969 106.149 192.997 106.193 193.034C106.237 193.072 106.273 193.117 106.299 193.169L114.923 205.708C114.958 205.773 114.977 205.847 114.975 205.921C114.974 205.995 114.954 206.068 114.916 206.132C114.879 206.196 114.825 206.249 114.761 206.286C114.696 206.322 114.623 206.342 114.549 206.342V206.342Z" fill="#0C0C0C"></path>
</svg>