<svg width="342" height="779" viewBox="0 0 342 779" fill="none" xmlns="http://www.w3.org/2000/svg">
<path d="M82.855 734.15C82.855 734.15 87.423 757.833 109.597 759.15C131.771 760.467 126.962 778.135 126.962 778.135H42.2271V735.8L82.855 734.15Z" fill="#367CFF"></path>
<path d="M36.481 302.146C36.481 302.146 42.818 295.027 42.762 311.176C42.552 371.412 38.488 749.264 38.488 749.264L94.167 748.797L127.897 299.697L36.481 302.146Z" fill="#262626"></path>
<path d="M177.932 734.15C177.932 734.15 182.501 757.833 204.675 759.15C226.849 760.467 222.04 778.135 222.04 778.135H137.305V735.8L177.932 734.15Z" fill="#367CFF"></path>
<path d="M188.7 306.823C188.7 306.823 195.656 512.697 194.933 522.76L188.393 747.705L133.633 748.717L124.803 514.624C124.803 514.624 119.015 450.05 103.413 390.088C95.4304 359.313 90.6263 327.801 89.0762 296.046L188.7 306.823Z" fill="#262626"></path>
<path d="M116.461 452.788L121.028 382.959C121.028 382.959 125.718 411.989 125.718 437.011C125.718 449.241 123.198 497.665 123.198 497.665L116.461 452.788Z" fill="#0A0A0A"></path>
<path d="M35.8761 302.14L35.6941 302.15C35.6941 302.15 35.8251 298.638 35.8761 302.14Z" fill="#333333"></path>
<path d="M36.1051 302.14L35.9231 302.15C35.9231 302.15 36.0541 298.638 36.1051 302.14Z" fill="#333333"></path>
<path d="M341.215 135.039C340.88 134.375 340.346 133.831 339.689 133.483C339.031 133.135 338.282 133 337.544 133.096C337.55 133.03 337.535 132.964 337.503 132.907C337.469 132.863 337.423 132.828 337.372 132.807C337.32 132.786 337.263 132.779 337.208 132.787L339.698 131.002C340.443 130.492 340.978 129.73 341.205 128.856C341.431 127.983 341.334 127.056 340.93 126.249C340.506 125.465 339.805 124.866 338.965 124.569C338.124 124.271 337.203 124.296 336.38 124.639C336.386 124.604 336.363 124.57 336.358 124.539L337.381 123.806C338.081 123.323 338.593 122.613 338.83 121.796C339.067 120.979 339.014 120.105 338.681 119.322C338.462 118.835 338.138 118.403 337.732 118.057C337.325 117.711 336.847 117.459 336.332 117.321C335.816 117.182 335.277 117.16 334.752 117.256C334.227 117.351 333.729 117.563 333.296 117.874L330.935 119.566C330.928 119.552 330.935 119.536 330.925 119.522C330.915 119.508 330.891 119.505 330.877 119.49C331.419 118.88 331.737 118.104 331.78 117.289C331.823 116.475 331.588 115.67 331.114 115.006C330 113.213 327.427 113.58 325.901 114.674L312.001 124.274L314.485 120.093C314.985 119.288 315.161 118.324 314.978 117.394C314.794 116.464 314.264 115.639 313.496 115.085C313.089 114.813 312.632 114.626 312.15 114.537C311.669 114.447 311.175 114.457 310.698 114.565C310.22 114.673 309.77 114.877 309.374 115.165C308.978 115.453 308.646 115.818 308.396 116.239L294.835 139.07C293.244 141.748 292.76 144.941 293.486 147.971C294.211 151 296.09 153.627 298.722 155.294V155.294C301.774 157.227 305.334 158.204 308.946 158.1C312.557 157.997 316.055 156.817 318.992 154.712L339.976 139.671C340.675 139.152 341.177 138.412 341.402 137.571C341.627 136.73 341.561 135.838 341.215 135.039V135.039Z" fill="#E98862"></path>
<g opacity="0.25">
<path opacity="0.25" d="M317.178 129.047C317.229 129.117 317.305 129.165 317.391 129.179C317.477 129.194 317.564 129.175 317.636 129.125L330.836 119.98C330.905 119.928 330.951 119.852 330.964 119.767C330.978 119.682 330.958 119.595 330.909 119.524C330.86 119.454 330.786 119.405 330.701 119.388C330.617 119.371 330.529 119.387 330.457 119.433L317.257 128.578C317.184 128.628 317.135 128.705 317.119 128.792C317.103 128.879 317.123 128.968 317.173 129.041L317.178 129.047Z" fill="#0C0C0C"></path>
</g>
<g opacity="0.25">
<path opacity="0.25" d="M321.05 134.981C321.101 135.051 321.177 135.099 321.263 135.113C321.349 135.128 321.437 135.108 321.508 135.059L336.243 124.853C336.315 124.803 336.365 124.726 336.38 124.639C336.396 124.552 336.376 124.463 336.326 124.391C336.274 124.321 336.197 124.273 336.112 124.257C336.026 124.242 335.937 124.26 335.864 124.307L321.129 134.507C321.057 134.557 321.007 134.634 320.992 134.721C320.976 134.808 320.996 134.897 321.046 134.97L321.05 134.981Z" fill="#0C0C0C"></path>
</g>
<g opacity="0.25">
<path opacity="0.25" d="M325.207 141.433C325.258 141.503 325.335 141.55 325.42 141.564C325.506 141.579 325.594 141.559 325.665 141.51L337.419 133.37C337.488 133.318 337.534 133.242 337.547 133.157C337.561 133.072 337.541 132.985 337.492 132.914C337.443 132.844 337.369 132.795 337.285 132.778C337.2 132.761 337.113 132.777 337.04 132.823L325.287 140.964C325.251 140.989 325.22 141.02 325.197 141.057C325.173 141.094 325.157 141.134 325.149 141.177C325.141 141.22 325.142 141.264 325.151 141.307C325.16 141.35 325.178 141.39 325.203 141.426L325.207 141.433Z" fill="#0C0C0C"></path>
</g>
<path d="M286.833 133.863L247.006 201.692L198.406 137.951L158.049 174.336L226.97 263.595L227.421 264.23C230.18 268.008 233.855 271.022 238.101 272.987C242.346 274.953 247.022 275.805 251.688 275.463C256.354 275.122 260.856 273.598 264.77 271.036C268.684 268.473 271.882 264.957 274.061 260.817L330.694 158.258L286.833 133.863Z" fill="#367CFF"></path>
<path d="M243.1 209.848C243.02 209.848 242.941 209.829 242.87 209.793C242.811 209.763 242.758 209.721 242.715 209.671C242.672 209.62 242.639 209.562 242.619 209.498C242.598 209.435 242.59 209.368 242.595 209.302C242.601 209.236 242.619 209.171 242.649 209.112L246.549 201.462C246.577 201.4 246.618 201.343 246.668 201.297C246.719 201.251 246.778 201.215 246.843 201.192C246.908 201.169 246.976 201.16 247.045 201.165C247.113 201.169 247.18 201.188 247.241 201.219C247.302 201.25 247.356 201.293 247.4 201.346C247.444 201.399 247.476 201.46 247.496 201.526C247.515 201.592 247.521 201.661 247.513 201.729C247.505 201.797 247.483 201.863 247.449 201.922L243.544 209.573C243.503 209.655 243.439 209.725 243.361 209.773C243.282 209.822 243.192 209.848 243.1 209.848Z" fill="#0C0C0C"></path>
<path d="M195.605 201.303L194.39 222.726L195.4 222.783L196.616 201.36L195.605 201.303Z" fill="#0C0C0C"></path>
<path d="M67.2772 46.2601C67.2772 46.2601 65.4113 70.1061 59.9423 78.7021C44.1963 103.449 39.3942 131.439 54.7032 146.267C70.0122 161.095 168.738 162.443 176.603 128.834C183.228 100.534 169.751 97.3341 166.734 73.8921C165.368 63.2861 161.534 41.0352 161.534 41.0352" fill="#0A0A0A"></path>
<path d="M151.474 123.461C151.303 123.439 149.412 154.821 112.955 152.085C87.7171 150.194 78.7181 123.417 78.1401 123.417C80.8611 122.838 85.4401 121.997 86.6511 121.352C90.6261 119.217 95.5431 116.995 96.8241 109.277C97.5621 104.829 96.3101 82.072 96.6951 77.571L135.437 86.219C134.895 95.719 131.107 117.759 144.386 121.659C146.6 122.305 148.975 122.9 151.474 123.461Z" fill="#E98862"></path>
<path opacity="1" d="M135.98 112.654C135.374 110.698 134.983 108.682 134.814 106.641C134.389 101.984 134.474 97.2944 135.068 92.6559C127.194 91.5932 119.776 88.3431 113.656 83.2749C112.936 85.9319 108.98 97.5409 110.076 100.066C112.146 104.838 121.876 112.654 135.98 112.654Z" fill="#0C0C0C"></path>
<path d="M130.845 102.777C115.555 104.077 95.8642 97.7401 92.0062 77.3531L88.5252 58.958C84.6672 38.572 92.2463 20.019 111.441 16.386C130.636 12.753 148.112 26.5651 151.97 46.9511L153.511 55.095C154.991 62.917 158.126 100.455 130.845 102.777Z" fill="#E98862"></path>
<path d="M148.04 55.9829C149.369 55.9829 150.446 54.9057 150.446 53.5769C150.446 52.2481 149.369 51.1709 148.04 51.1709C146.711 51.1709 145.634 52.2481 145.634 53.5769C145.634 54.9057 146.711 55.9829 148.04 55.9829Z" fill="#0C0C0C"></path>
<path d="M123.389 59.2749C124.718 59.2749 125.795 58.1977 125.795 56.8689C125.795 55.5401 124.718 54.4629 123.389 54.4629C122.061 54.4629 120.983 55.5401 120.983 56.8689C120.983 58.1977 122.061 59.2749 123.389 59.2749Z" fill="#0C0C0C"></path>
<path opacity="1" d="M136.917 74.5101H136.954C137.731 74.3563 138.499 74.1603 139.254 73.9231C140.383 73.5601 141.862 72.959 141.669 71.94C141.45 70.778 135.895 58.8471 135.263 57.4911C135.236 57.4324 135.197 57.3797 135.15 57.3359C135.102 57.2921 135.046 57.2581 134.985 57.2359C134.924 57.2137 134.86 57.2037 134.795 57.2065C134.73 57.2093 134.667 57.2247 134.608 57.252C134.55 57.2794 134.497 57.318 134.453 57.3657C134.409 57.4134 134.375 57.4693 134.353 57.5301C134.331 57.5909 134.321 57.6555 134.324 57.7202C134.326 57.7849 134.342 57.8484 134.369 57.9071C136.738 62.9881 140.552 71.3411 140.7 72.1231C140.573 72.4861 138.7 73.1751 136.769 73.5411C136.645 73.5658 136.535 73.6374 136.462 73.7411C136.389 73.8447 136.359 73.9725 136.378 74.0977C136.397 74.223 136.463 74.3362 136.563 74.4139C136.663 74.4916 136.789 74.5279 136.915 74.5151L136.917 74.5101Z" fill="#0C0C0C"></path>
<path opacity="1" d="M134.074 83.3118C137.205 82.9051 140.197 81.7686 142.808 79.9938C142.915 79.9211 142.988 79.8097 143.014 79.6833C143.039 79.5569 143.014 79.4257 142.943 79.3177C142.873 79.2097 142.763 79.1336 142.637 79.1055C142.512 79.0775 142.38 79.0999 142.27 79.1678C136.62 82.8488 131.005 83.4448 126.033 80.8898C125.933 80.8352 125.829 80.7862 125.723 80.7429C125.601 80.7023 125.468 80.711 125.353 80.767C125.237 80.8231 125.148 80.9221 125.104 81.043C125.06 81.1639 125.066 81.2972 125.119 81.4143C125.172 81.5313 125.268 81.6231 125.388 81.6699C125.427 81.6859 125.488 81.7208 125.582 81.7698C128.196 83.1176 131.153 83.6545 134.074 83.3118V83.3118Z" fill="#0C0C0C"></path>
<path d="M73.1691 65.369L90.3761 62.2139C103.407 56.9409 107.348 34.3819 107.348 34.3819C107.348 34.3819 123.177 49.81 161.537 41.035C161.537 41.035 153.845 -12.4651 97.1752 3.09394C78.9022 8.10994 65.7871 26.524 67.4211 51.135C68.5651 68.381 73.1691 65.369 73.1691 65.369Z" fill="#0A0A0A"></path>
<path d="M94.3743 83.3389C88.5403 84.4389 82.6303 79.0969 81.5263 73.2639C80.4223 67.4309 84.5432 63.3179 90.3762 62.2139L94.1212 65.5538L99.3893 82.3889L94.3743 83.3389Z" fill="#E98862"></path>
<path d="M138.779 47.7359C140.481 46.6368 142.447 46.0152 144.471 45.936C145.468 45.892 146.465 45.9975 147.43 46.249C148.386 46.4948 149.307 46.8596 150.171 47.3349C150.294 47.3943 150.389 47.5002 150.434 47.6293C150.479 47.7583 150.471 47.8999 150.411 48.0229C150.352 48.146 150.246 48.2405 150.117 48.2855C149.988 48.3305 149.846 48.3223 149.723 48.2629L149.687 48.246C148.888 47.8531 148.043 47.5622 147.171 47.38C146.309 47.1961 145.425 47.1431 144.547 47.223C142.807 47.3689 141.136 47.9727 139.704 48.973L139.658 49.006C139.492 49.1264 139.285 49.1759 139.083 49.1437C138.88 49.1114 138.699 49 138.578 48.834C138.458 48.6679 138.408 48.4609 138.441 48.2584C138.473 48.0559 138.584 47.8744 138.75 47.754L138.779 47.7359Z" fill="#0C0C0C"></path>
<path d="M123.434 51.349C121.738 50.9336 119.962 50.9743 118.286 51.467C117.439 51.7097 116.633 52.0788 115.896 52.562C115.149 53.0467 114.467 53.6231 113.863 54.278L113.836 54.306C113.741 54.3965 113.615 54.4473 113.484 54.4481C113.353 54.4489 113.227 54.3996 113.13 54.3103C113.034 54.221 112.976 54.0984 112.967 53.9675C112.958 53.8366 113 53.7073 113.083 53.606C113.718 52.851 114.445 52.1791 115.247 51.606C116.056 51.022 116.947 50.5632 117.892 50.245C119.808 49.5863 121.865 49.455 123.849 49.865C123.949 49.8863 124.043 49.927 124.126 49.9847C124.21 50.0425 124.281 50.116 124.336 50.2013C124.391 50.2866 124.429 50.3819 124.447 50.4818C124.466 50.5817 124.464 50.6842 124.443 50.7835C124.421 50.8827 124.381 50.9769 124.323 51.0604C124.265 51.144 124.192 51.2154 124.106 51.2705C124.021 51.3256 123.926 51.3633 123.826 51.3816C123.726 51.3999 123.624 51.3983 123.524 51.377L123.492 51.37L123.434 51.349Z" fill="#0C0C0C"></path>
<path opacity="1" d="M134.74 87.9399C135.307 87.8758 135.868 87.7635 136.416 87.604C136.478 87.5861 136.536 87.5562 136.587 87.5159C136.638 87.4755 136.68 87.4257 136.711 87.369C136.743 87.3124 136.763 87.2501 136.77 87.1858C136.777 87.1214 136.772 87.0563 136.754 86.994C136.736 86.9318 136.706 86.8737 136.666 86.823C136.626 86.7723 136.576 86.73 136.519 86.6986C136.463 86.6672 136.4 86.6473 136.336 86.64C136.271 86.6327 136.206 86.6381 136.144 86.656C132.844 87.606 130.968 86.3479 130.89 86.2939C130.783 86.2238 130.653 86.1981 130.527 86.2222C130.402 86.2462 130.29 86.3181 130.217 86.4227C130.143 86.5273 130.113 86.6565 130.133 86.7828C130.153 86.9092 130.221 87.0229 130.323 87.1C131.654 87.8821 133.215 88.1789 134.74 87.9399Z" fill="#0C0C0C"></path>
<path d="M90.4131 62L90.2432 61.524C112.043 53.698 106.712 32.304 106.656 32.088L107.145 31.96C107.2 32.175 112.656 54.011 90.4131 62Z" fill="#0C0C0C"></path>
<path opacity="0.1" d="M121.443 76.0156C123.96 75.7448 125.84 74.0286 125.641 72.1825C125.442 70.3363 123.241 69.0594 120.724 69.3302C118.207 69.601 116.327 71.3171 116.526 73.1632C116.724 75.0093 118.926 76.2864 121.443 76.0156Z" fill="#0C0C0C"></path>
<path opacity="0.1" d="M148.089 68.9491C148.289 70.7921 150.489 72.0682 153.011 71.8002C153.446 71.7533 153.875 71.6614 154.291 71.5262C154.433 69.3322 154.464 67.2202 154.423 65.2652C153.727 65.0826 153.003 65.0317 152.288 65.1152C149.771 65.3822 147.892 67.1001 148.089 68.9491Z" fill="#0C0C0C"></path>
<path d="M196.769 192.55C195.621 206.04 190.035 290.206 188.931 306.823H42.8431C41.9831 291.836 32.052 226.302 28.793 196.995C25.681 169.028 19.5771 155.027 24.0511 146.759C31.3631 133.246 51.3441 125.438 64.9681 123.593C73.2871 122.467 85.8001 121.66 85.8001 121.66C85.8001 121.66 86.859 143.092 112.122 144.285C146.511 145.907 144.215 121.66 144.385 121.66C149.956 121.66 181.785 125.186 189.568 129.801C210.786 142.366 199.207 163.961 196.769 192.55Z" fill="#367CFF"></path>
<path d="M291.6 201.974L277.518 270.418C277.232 271.808 276.479 273.058 275.383 273.959C274.286 274.861 272.914 275.359 271.495 275.37L174.531 276.196C173.606 276.205 172.69 276.006 171.852 275.614C171.013 275.223 170.273 274.649 169.685 273.934C169.098 273.22 168.677 272.382 168.455 271.484C168.233 270.586 168.215 269.649 168.402 268.743L182.484 200.299C182.77 198.909 183.524 197.659 184.62 196.758C185.716 195.856 187.088 195.359 188.507 195.347L285.472 194.522C286.397 194.514 287.313 194.713 288.151 195.104C288.989 195.495 289.729 196.069 290.317 196.784C290.904 197.498 291.325 198.335 291.547 199.233C291.769 200.131 291.787 201.068 291.6 201.974V201.974Z" fill="#292A2E"></path>
<path d="M201.177 250.591C201.229 251.491 200.954 252.38 200.402 253.094C199.851 253.807 199.061 254.298 198.177 254.476L195.192 255.134C195.245 255.152 195.294 255.182 195.332 255.223C195.371 255.263 195.399 255.313 195.414 255.367C195.421 255.43 195.407 255.495 195.374 255.549C196.091 255.751 196.728 256.171 197.196 256.751C197.664 257.332 197.94 258.043 197.985 258.787C197.989 259.654 197.7 260.497 197.166 261.18C196.632 261.863 195.883 262.346 195.04 262.551L169.834 268.151C168.545 268.44 167.229 268.586 165.908 268.586C162.966 268.586 160.068 267.869 157.464 266.5C154.86 265.13 152.629 263.147 150.962 260.723C149.195 258.158 148.497 255.005 149.019 251.934C149.541 248.863 151.24 246.117 153.755 244.28L175.197 228.606C175.669 228.26 176.218 228.035 176.797 227.949L174.824 237.531L175.35 237.41L175.461 237.389L191.904 234.04C193.736 233.64 196.245 234.303 196.569 236.388C196.742 237.186 196.641 238.019 196.281 238.752C195.921 239.485 195.324 240.075 194.586 240.425C194.596 240.435 194.616 240.445 194.616 240.466C194.616 240.487 194.606 240.496 194.606 240.516L197.449 239.889C197.969 239.773 198.509 239.774 199.029 239.892C199.548 240.01 200.035 240.242 200.455 240.571C200.874 240.9 201.215 241.318 201.453 241.795C201.691 242.272 201.82 242.796 201.831 243.329C201.831 244.18 201.536 245.004 200.998 245.662C200.459 246.321 199.71 246.773 198.876 246.942L197.652 247.215C197.642 247.255 197.652 247.296 197.631 247.326C198.522 247.334 199.377 247.672 200.033 248.276C200.688 248.879 201.096 249.704 201.177 250.591V250.591Z" fill="#E98862"></path>
<g opacity="0.25">
<path opacity="0.25" d="M178.231 243.834C178.25 243.918 178.302 243.992 178.375 244.039C178.448 244.086 178.536 244.102 178.621 244.085L194.355 240.858C194.441 240.84 194.517 240.789 194.565 240.715C194.614 240.642 194.631 240.552 194.613 240.465C194.596 240.379 194.544 240.303 194.471 240.255C194.397 240.207 194.307 240.189 194.221 240.207L178.488 243.434C178.445 243.443 178.404 243.46 178.368 243.484C178.332 243.509 178.301 243.54 178.277 243.576C178.253 243.613 178.236 243.654 178.228 243.696C178.22 243.739 178.22 243.783 178.229 243.826L178.231 243.834Z" fill="#0C0C0C"></path>
</g>
<g opacity="0.25">
<path opacity="0.25" d="M179.462 250.812C179.482 250.896 179.534 250.97 179.607 251.017C179.68 251.063 179.768 251.08 179.853 251.063L197.411 247.463C197.454 247.454 197.494 247.437 197.53 247.413C197.567 247.388 197.598 247.357 197.622 247.321C197.646 247.284 197.662 247.243 197.671 247.201C197.679 247.158 197.679 247.114 197.67 247.071C197.65 246.986 197.598 246.912 197.525 246.864C197.452 246.816 197.364 246.797 197.278 246.812L179.719 250.412C179.633 250.43 179.557 250.481 179.509 250.555C179.46 250.628 179.443 250.718 179.461 250.804L179.462 250.812Z" fill="#0C0C0C"></path>
</g>
<g opacity="0.25">
<path opacity="0.25" d="M180.753 258.377C180.772 258.461 180.824 258.535 180.897 258.582C180.97 258.629 181.058 258.646 181.143 258.628L195.149 255.756C195.235 255.738 195.311 255.687 195.36 255.614C195.408 255.54 195.426 255.45 195.408 255.364C195.39 255.278 195.339 255.202 195.266 255.153C195.192 255.105 195.102 255.087 195.016 255.105L181.01 257.977C180.924 257.995 180.848 258.046 180.799 258.12C180.751 258.193 180.733 258.283 180.751 258.37L180.753 258.377Z" fill="#0C0C0C"></path>
</g>
<path d="M168.268 278.12L31.5171 302.833C27.2499 303.297 22.9332 302.766 18.9056 301.282C14.8781 299.798 11.2494 297.4 8.30408 294.278C5.35877 291.155 3.17702 287.393 1.93006 283.285C0.683107 279.178 0.404809 274.838 1.11707 270.605L20.2611 156.812C20.8664 153.214 22.1744 149.771 24.1104 146.679C26.0464 143.587 28.5725 140.906 31.5444 138.79C34.5164 136.674 37.8761 135.164 41.4316 134.346C44.9872 133.529 48.6688 133.419 52.2666 134.025C55.8644 134.63 59.3078 135.938 62.4 137.874C65.4923 139.81 68.1729 142.336 70.2889 145.308C72.405 148.28 73.9148 151.64 74.7324 155.195C75.55 158.751 75.6593 162.432 75.0541 166.03L62.0001 244.365L162.259 231.774L168.268 278.12Z" fill="#367CFF"></path>
<path d="M31.5162 303.339C31.3931 303.334 31.2759 303.285 31.1866 303.2C31.0973 303.115 31.042 303.001 31.031 302.878C31.0201 302.755 31.0543 302.633 31.1272 302.534C31.2002 302.435 31.3068 302.365 31.4272 302.339L167.705 277.712L161.819 232.343L62.0602 244.871C61.9822 244.881 61.9027 244.873 61.8285 244.847C61.7543 244.82 61.6875 244.777 61.6332 244.72C61.578 244.663 61.5369 244.595 61.5135 244.519C61.49 244.444 61.4848 244.364 61.4982 244.286L69.7981 194.22C69.8083 194.154 69.8316 194.091 69.8665 194.034C69.9014 193.977 69.9474 193.928 70.0016 193.889C70.0559 193.851 70.1173 193.823 70.1823 193.808C70.2473 193.794 70.3146 193.792 70.3802 193.804C70.5124 193.826 70.6303 193.9 70.7083 194.009C70.7863 194.118 70.8179 194.254 70.7962 194.386L62.6082 243.786L162.194 231.28C162.327 231.265 162.46 231.302 162.566 231.383C162.671 231.465 162.741 231.585 162.759 231.717L168.771 278.063C168.788 278.192 168.754 278.322 168.678 278.427C168.601 278.532 168.487 278.603 168.359 278.626L31.6082 303.339C31.5776 303.341 31.5468 303.341 31.5162 303.339V303.339Z" fill="#0C0C0C"></path>
<path d="M61.9227 243.86L53.1267 245.268L53.2868 246.268L62.0828 244.86L61.9227 243.86Z" fill="#0C0C0C"></path>
</svg>